SplineFontDB: 3.2
FontName: QuasarClassic-Black
FullName: Quasar Classic Black
FamilyName: Quasar Classic
Weight: Black
Copyright: Copyright (c) 2023, neilb
UComments: "2023-12-15: Created with FontForge (http://fontforge.org)"
Version: 000.001
ItalicAngle: 0
UnderlinePosition: -100
UnderlineWidth: 50
Ascent: 800
Descent: 200
InvalidEm: 0
LayerCount: 2
Layer: 0 0 "Back" 1
Layer: 1 0 "Fore" 0
XUID: [1021 441 2049316168 16478]
StyleMap: 0x0000
FSType: 0
OS2Version: 0
OS2_WeightWidthSlopeOnly: 0
OS2_UseTypoMetrics: 1
CreationTime: 1702635369
ModificationTime: 1728711410
PfmFamily: 17
TTFWeight: 900
TTFWidth: 5
LineGap: 0
VLineGap: 0
OS2TypoAscent: 917
OS2TypoAOffset: 0
OS2TypoDescent: -417
OS2TypoDOffset: 0
OS2TypoLinegap: 0
OS2WinAscent: 840
OS2WinAOffset: 0
OS2WinDescent: 338
OS2WinDOffset: 0
HheadAscent: 917
HheadAOffset: 0
HheadDescent: -417
HheadDOffset: 0
OS2CapHeight: 828
OS2XHeight: 500
OS2Vendor: 'PfEd'
MarkAttachClasses: 1
DEI: 91125
Encoding: UnicodeFull
UnicodeInterp: none
NameList: AGL For New Fonts
DisplaySize: -48
AntiAlias: 1
FitToEm: 1
WinInfo: 58928 16 8
BeginPrivate: 0
EndPrivate
Grid
-1000 828 m 0
 2000 828 l 1024
-1000 500.25 m 0
 2000 500.25 l 1024
EndSplineSet
BeginChars: 1114117 173

StartChar: i
Encoding: 105 105 0
Width: 295
Flags: HMW
LayerCount: 2
Fore
SplineSet
48 679 m 0
 48 734 93 779 148 779 c 0
 203 779 248 734 248 679 c 0
 248 624 203 579 148 579 c 0
 93 579 48 624 48 679 c 0
60 500 m 5
 235 500 l 5
 235 0 l 5
 60 0 l 5
 60 500 l 5
EndSplineSet
EndChar

StartChar: o
Encoding: 111 111 1
Width: 598
Flags: HMW
LayerCount: 2
Back
SplineSet
39 250 m 0
 39 394 155 510 299 510 c 0
 443 510 559 394 559 250 c 0
 559 106 443 -10 299 -10 c 0
 155 -10 39 106 39 250 c 0
69 250 m 0
 69 121 165 15 299 15 c 0
 433 15 529 121 529 250 c 0
 529 379 433 485 299 485 c 0
 165 485 69 379 69 250 c 0
EndSplineSet
Fore
SplineSet
214 250 m 7
 214 207 248 165 299 165 c 7
 350 165 384 207 384 250 c 7
 384 293 350 335 299 335 c 7
 248 335 214 293 214 250 c 7
  Spiro
    214 250 o
    224.239 208.001 o
    253.445 177.014 o
    299 165 o
    344.555 177.014 o
    373.761 208.001 o
    384 250 o
    373.761 291.999 o
    344.555 322.986 o
    299 335 o
    253.445 322.986 o
    224.239 291.999 o
    0 0 z
  EndSpiro
39 250 m 7
 39 391.00390625 148 510 299 510 c 7
 452 510 559 388.006835938 559 250 c 7
 559 111 452 -10 299 -10 c 7
 149 -10 39 109 39 250 c 7
  Spiro
    39 250 o
    72.121 381.736 o
    163.264 474.882 o
    299 510 o
    436.514 474.882 o
    526.767 381.736 o
    559 250 o
    526.767 118.264 o
    436.514 25.118 o
    299 -10 o
    163.264 25.118 o
    72.121 118.264 o
    0 0 z
  EndSpiro
EndSplineSet
EndChar

StartChar: n
Encoding: 110 110 2
Width: 590
Flags: HMW
LayerCount: 2
Back
SplineSet
65 280 m 0
 65 407 168 510 295 510 c 0
 422 510 525 407 525 280 c 0
 525 153 422 50 295 50 c 0
 168 50 65 153 65 280 c 0
240 280 m 0
 240 310 265 335 295 335 c 0
 325 335 350 310 350 280 c 0
 350 250 325 225 295 225 c 0
 265 225 240 250 240 280 c 0
210 250 m 3
 210 205 242 165 295 165 c 3
 348 165 380 205 380 250 c 3
 380 295 348 335 295 335 c 3
 242 335 210 295 210 250 c 3
  Spiro
    210 250 o
    220.239 208.001 o
    249.445 177.014 o
    295 165 o
    340.555 177.014 o
    369.761 208.001 o
    380 250 o
    369.761 291.999 o
    340.555 322.986 o
    295 335 o
    249.445 322.986 o
    220.239 291.999 o
    0 0 z
  EndSpiro
35 250 m 3
 35 395 141 510 295 510 c 3
 453 510 555 395 555 250 c 3
 555 105 453 -10 295 -10 c 3
 141 -10 35 105 35 250 c 3
  Spiro
    35 250 o
    68.121 381.736 o
    159.264 474.882 o
    295 510 o
    432.514 474.882 o
    522.767 381.736 o
    555 250 o
    522.767 118.264 o
    432.514 25.118 o
    295 -10 o
    159.264 25.118 o
    68.121 118.264 o
    0 0 z
  EndSpiro
EndSplineSet
Fore
SplineSet
60 270 m 2
 60 419 178 510 295 510 c 0
 412 510 530 419 530 270 c 2
 530 0 l 9
 355 0 l 17
 355 270 l 2
 355 313 328 335 295 335 c 3
 262 335 235 313 235 270 c 2
 235 0 l 9
 60 0 l 17
 60 270 l 2
EndSplineSet
EndChar

StartChar: a
Encoding: 97 97 3
Width: 609
Flags: HMW
LayerCount: 2
Back
SplineSet
39 250 m 0
 39 394 155 510 299 510 c 0
 443 510 559 394 559 250 c 0
 559 106 443 -10 299 -10 c 0
 155 -10 39 106 39 250 c 0
214 250 m 0
 214 297 252 335 299 335 c 0
 346 335 384 297 384 250 c 0
 384 203 346 165 299 165 c 0
 252 165 214 203 214 250 c 0
EndSplineSet
Fore
SplineSet
299 335 m 3
 249 335 214 294 214 250 c 0
 214 205 250 165 299 165 c 0
 311.01953125 165 319.12109375 166.654296875 331 170.997070312 c 1
 331 -8.1669921875 l 1
 323.494140625 -9.0341796875 311.482421875 -10 299 -10 c 0
 155 -10 39 105 39 249 c 0
 39 393 155 510 299 510 c 0
 430 510 549 410 549 248 c 2
 549 0 l 9
 374 0 l 17
 374 246 l 2
 374 309 337 335 299 335 c 3
EndSplineSet
EndChar

StartChar: g
Encoding: 103 103 4
Width: 615
Flags: HMW
LayerCount: 2
Back
SplineSet
555 332 m 1
 300 332 l 2
 260 332 220 300 220 252 c 3
 220 208 256 172 300 172 c 0
 344 172 380 208 380 252 c 0
 380 265 377 278 371 289 c 1
 551 289 l 1
 553 275 555 260 555 245 c 0
 555 139 491 49 399 10 c 0
 368 -3 333 22 298 22 c 0
 265 22 235 -4 206 8 c 0
 112 45 45 137 45 245 c 0
 45 386 159 500 300 500 c 2
 555 500 l 1
 555 332 l 1
220 -83 m 0
 220 -127 256 -163 300 -163 c 0
 344 -163 380 -127 380 -83 c 0
 380 -39 344 -3 300 -3 c 0
 256 -3 220 -39 220 -83 c 0
45 -83 m 0
 45 58 159 172 300 172 c 0
 441 172 555 58 555 -83 c 0
 555 -224 441 -338 300 -338 c 0
 159 -338 45 -224 45 -83 c 0
EndSplineSet
Fore
SplineSet
220 -83 m 0
 220 -127 256 -163 300 -163 c 0
 344 -163 380 -127 380 -83 c 0
 380 -39 344 -3 300 -3 c 0
 256 -3 220 -39 220 -83 c 0
45 -88 m 0
 45 53 174 127 300 127 c 0
 426 127 555 53 555 -88 c 0
 555 -222 441 -338 300 -338 c 0
 159 -338 45 -222 45 -88 c 0
300 332 m 2
 260 332 220 300 220 252 c 3
 220 208 256 172 300 172 c 0
 344 172 380 208 380 252 c 0
 380 265 377 278 371 289 c 1
 551 289 l 1
 553 275 555 260 555 245 c 0
 555 104 426 35 300 35 c 0
 174 35 45 109 45 250 c 0
 45 384 159 500 300 500 c 2
 555 500 l 1
 555 332 l 1
 300 332 l 2
EndSplineSet
EndChar

StartChar: r
Encoding: 114 114 5
Width: 426
Flags: HMW
LayerCount: 2
Back
SplineSet
235 250 m 7
 235 207 269 165 320 165 c 7
 371 165 405 207 405 250 c 7
 405 293 371 335 320 335 c 7
 269 335 235 293 235 250 c 7
  Spiro
    235 250 o
    245.239 208.001 o
    274.445 177.014 o
    320 165 o
    365.555 177.014 o
    394.761 208.001 o
    405 250 o
    394.761 291.999 o
    365.555 322.986 o
    320 335 o
    274.445 322.986 o
    245.239 291.999 o
    0 0 z
  EndSpiro
60 250 m 7
 60 391.00390625 169 510 320 510 c 7
 473 510 580 388.006835938 580 250 c 7
 580 111 473 -10 320 -10 c 7
 170 -10 60 109 60 250 c 7
  Spiro
    60 250 o
    93.121 381.736 o
    184.264 474.882 o
    320 510 o
    457.514 474.882 o
    547.767 381.736 o
    580 250 o
    547.767 118.264 o
    457.514 25.118 o
    320 -10 o
    184.264 25.118 o
    93.121 118.264 o
    0 0 z
  EndSpiro
EndSplineSet
Fore
SplineSet
320 510 m 3
 344 510 365 507 381 503 c 1
 381 328 l 1
 365 333 349 335 335 335 c 3
 287.447265625 335 235 302.040039062 235 230 c 2
 235 0 l 1
 60 0 l 1
 60 250 l 2
 60 398 175.99609375 510 320 510 c 3
EndSplineSet
EndChar

StartChar: x
Encoding: 120 120 6
Width: 587
Flags: HMW
LayerCount: 2
Back
SplineSet
81 1030 m 1
 205 1030 273 971 293 933 c 1
 313 971 382 1030 506 1030 c 1
 506 855 l 1
 407 855 381 819 381 780 c 0
 381 741 407 705 506 705 c 1
 506 530 l 1
 382 530 313 589 293 627 c 1
 273 589 205 530 81 530 c 1
 81 705 l 1
 180 705 206 741 206 780 c 0
 206 819 180 855 81 855 c 1
 81 1030 l 1
80.5 500 m 1
 157.704101562 500 258.099609375 474.1171875 292.6875 391.905273438 c 1
 327.5234375 474.376953125 428.346679688 500 505.5 500 c 1
 505.5 325 l 1
 414.5 325 380.5 293 380.5 250 c 0
 380.5 207 414.5 175 505.5 175 c 1
 505.5 0 l 1
 428.857421875 0 328.061523438 25.6123046875 293.112304688 108.06640625 c 1
 258.517578125 25.7861328125 157.983398438 0 80.5 0 c 1
 80.5 175 l 1
 171.5 175 205.5 207 205.5 250 c 0
 205.5 293 171.5 325 80.5 325 c 1
 80.5 500 l 1
50.5 500 m 1
 273.5 500 380.5 388.006835938 380.5 250 c 3
 380.5 111 273.5 0 50.5 0 c 1
 50.5 175 l 1
 171.5 175 205.5 207 205.5 250 c 1
 205.5 293 171.5 325 50.5 325 c 1
 50.5 500 l 1
535.5 0 m 1
 315.5 0 205.5 109 205.5 250 c 3
 205.5 391.00390625 314.5 500 535.5 500 c 1
 535.5 325 l 1
 414.5 325 380.5 293 380.5 250 c 3
 380.5 207 414.5 175 535.5 175 c 1
 535.5 0 l 1
EndSplineSet
Fore
SplineSet
108 335 m 3
 91 335 76 333 60 328 c 1
 60 503 l 1
 76 507 97 510 121 510 c 3
 271 510 336 391 336 250 c 7
 336 108.99609375 272 -10 121 -10 c 7
 97 -10 76 -7 60 -3 c 5
 60 172 l 5
 76 167 90.970703125 165 108 165 c 7
 174.0078125 165 206 207 206 250 c 7
 206 293 174 335 108 335 c 3
479 165 m 7
 496 165 511 167 527 172 c 5
 527 -3 l 5
 511 -7 490 -10 466 -10 c 7
 316 -10 251 109 251 250 c 7
 251 391.00390625 315 510 466 510 c 3
 490 510 511 507 527 503 c 1
 527 328 l 1
 511 333 496.029296875 335 479 335 c 3
 412.9921875 335 381 293 381 250 c 7
 381 207 413 165 479 165 c 7
EndSplineSet
EndChar

StartChar: q
Encoding: 113 113 7
Width: 609
Flags: HMW
LayerCount: 2
Fore
SplineSet
299 335 m 3
 249 335 214 294 214 250 c 0
 214 205 250 165 299 165 c 0
 311.01953125 165 319.12109375 166.654296875 331 170.997070312 c 1
 331 -8.1669921875 l 1
 323.494140625 -9.0341796875 311.482421875 -10 299 -10 c 0
 155 -10 39 105 39 249 c 0
 39 393 155 510 299 510 c 0
 430 510 549 410 549 248 c 2
 549 -328 l 9
 374 -328 l 17
 374 246 l 2
 374 309 337 335 299 335 c 3
EndSplineSet
EndChar

StartChar: l
Encoding: 108 108 11
Width: 295
Flags: HMW
LayerCount: 2
Fore
SplineSet
60 828 m 1
 235 828 l 1
 235 0 l 1
 60 0 l 1
 60 828 l 1
EndSplineSet
EndChar

StartChar: h
Encoding: 104 104 13
Width: 590
Flags: HMW
LayerCount: 2
Back
SplineSet
60 828 m 1
 235 828 l 1
 235 0 l 1
 60 0 l 1
 60 828 l 1
60 280 m 2
 60 419 176 510 290 510 c 0
 404 510 520 419 520 280 c 2
 520 0 l 9
 345 0 l 17
 345 280 l 2
 345 313 320 335 290 335 c 3
 260 335 235 313 235 280 c 2
 235 0 l 9
 60 0 l 17
 60 280 l 2
EndSplineSet
Fore
SplineSet
60 828 m 5
 235 828 l 5
 235 0 l 5
 60 0 l 5
 60 828 l 5
170 270 m 6
 170 399 206 510 320 510 c 4
 444 510 530 419 530 270 c 6
 530 0 l 13
 355 0 l 21
 355 270 l 6
 355 313 328 335 295 335 c 7
 262 335 235 313 235 270 c 6
 235 210 l 13
 170 210 l 21
 170 270 l 6
EndSplineSet
EndChar

StartChar: m
Encoding: 109 109 14
Width: 885
Flags: HMW
LayerCount: 2
Back
SplineSet
355 270 m 2
 355 419 473 510 590 510 c 0
 707 510 825 419 825 270 c 2
 825 0 l 9
 650 0 l 17
 650 270 l 2
 650 313 623 335 590 335 c 3
 557 335 530 313 530 270 c 2
 530 0 l 9
 355 0 l 17
 355 270 l 2
60 270 m 2
 60 419 178 510 295 510 c 0
 412 510 530 419 530 270 c 2
 530 0 l 9
 355 0 l 17
 355 270 l 2
 355 313 328 335 295 335 c 3
 262 335 235 313 235 270 c 2
 235 0 l 9
 60 0 l 17
 60 270 l 2
355 280 m 2
 355 419 471 510 585 510 c 0
 699 510 815 419 815 280 c 2
 815 0 l 9
 640 0 l 17
 640 280 l 2
 640 313 615 335 585 335 c 3
 555 335 530 313 530 280 c 2
 530 0 l 9
 355 0 l 17
 355 280 l 2
70 280 m 2
 70 419 186 510 300 510 c 0
 414 510 530 419 530 280 c 2
 530 0 l 9
 355 0 l 17
 355 280 l 2
 355 313 330 335 300 335 c 3
 270 335 245 313 245 280 c 2
 245 0 l 9
 70 0 l 17
 70 280 l 2
EndSplineSet
Fore
SplineSet
405 270 m 2
 405 429 486 510 620 510 c 0
 724 510 825 419 825 270 c 2
 825 0 l 9
 650 0 l 17
 650 270 l 2
 650 313 620 335 590 335 c 3
 560 335 530 313 530 270 c 2
 530 0 l 9
 405 0 l 17
 405 270 l 2
60 270 m 2
 60 419 161 510 265 510 c 0
 399 510 480 429 480 270 c 2
 480 0 l 9
 355 0 l 17
 355 270 l 2
 355 313 325 335 295 335 c 3
 265 335 235 313 235 270 c 2
 235 0 l 9
 60 0 l 17
 60 270 l 2
EndSplineSet
EndChar

StartChar: e
Encoding: 101 101 15
Width: 619
Flags: HMW
LayerCount: 2
Back
SplineSet
214 250 m 3
 214 207 248 165 299 165 c 3
 350 165 384 207 384 250 c 3
 384 293 350 335 299 335 c 3
 248 335 214 293 214 250 c 3
  Spiro
    214 250 o
    224.239 208.001 o
    253.445 177.014 o
    299 165 o
    344.555 177.014 o
    373.761 208.001 o
    384 250 o
    373.761 291.999 o
    344.555 322.986 o
    299 335 o
    253.445 322.986 o
    224.239 291.999 o
    0 0 z
  EndSpiro
39 250 m 3
 39 391.00390625 148 510 299 510 c 3
 452 510 559 388.006835938 559 250 c 3
 559 111 452 -10 299 -10 c 3
 149 -10 39 109 39 250 c 3
  Spiro
    39 250 o
    72.121 381.736 o
    163.264 474.882 o
    299 510 o
    436.514 474.882 o
    526.767 381.736 o
    559 250 o
    526.767 118.264 o
    436.514 25.118 o
    299 -10 o
    163.264 25.118 o
    72.121 118.264 o
    0 0 z
  EndSpiro
EndSplineSet
Fore
SplineSet
299 175 m 2
 559 175 l 1
 559 0 l 1
 299 0 l 2
 149 0 39 109 39 250 c 3
 39 391 148 510 299 510 c 0
 452 510 559 388 559 250 c 0
 559 239 558 229 557 218 c 1
 378 218 l 1
 382 228 384 239 384 250 c 0
 384 293 350 335 299 335 c 0
 248 335 214 293 214 255 c 0
 214 217 248 175 299 175 c 2
  Spiro
    299 175 [
    559 175 v
    559 0 v
    299 0 ]
    165.042 33.4174 o
    73.0085 122.63 o
    39 250 o
    72.7867 379.959 o
    164.597 473.994 o
    299 510 o
    434.292 473.329 o
    525.657 378.625 o
    559 250 o
    558.704 239.27 o
    557.962 228.73 o
    557 218 v
    378 218 v
    381.331 228.286 o
    383.335 239.048 o
    384 250 o
    373.317 291.11 o
    343.666 322.542 o
    299 335 o
    254.334 322.727 o
    224.683 292.594 o
    214 255 o
    224.683 217.406 o
    254.334 187.273 o
    0 0 z
  EndSpiro
EndSplineSet
EndChar

StartChar: y
Encoding: 121 121 16
Width: 590
Flags: HMW
LayerCount: 2
Back
SplineSet
385 220 m 2
 385 91 369 -10 255 -10 c 0
 141 -10 65 81 65 220 c 2
 65 500 l 9
 240 500 l 17
 240 220 l 2
 240 187 265 165 295 165 c 3
 325 165 350 187 350 220 c 2
 350 280 l 9
 385 280 l 17
 385 220 l 2
185 -78 m 3
 185 -121 219 -163 270 -163 c 3
 321 -163 355 -121 355 -78 c 3
 355 -35 321 7 270 7 c 3
 219 7 185 -35 185 -78 c 3
  Spiro
    185 -78 o
    195.239 -119.999 o
    224.445 -150.986 o
    270 -163 o
    315.555 -150.986 o
    344.761 -119.999 o
    355 -78 o
    344.761 -36.001 o
    315.555 -5.014 o
    270 7 o
    224.445 -5.014 o
    195.239 -36.001 o
    0 0 z
  EndSpiro
10 -78 m 3
 10 63.00390625 119 182 270 182 c 3
 423 182 530 60.0068359375 530 -78 c 3
 530 -217 423 -338 270 -338 c 3
 120 -338 10 -219 10 -78 c 3
  Spiro
    10 -78 o
    43.121 53.736 o
    134.264 146.882 o
    270 182 o
    407.514 146.882 o
    497.767 53.736 o
    530 -78 o
    497.767 -209.736 o
    407.514 -302.882 o
    270 -338 o
    134.264 -302.882 o
    43.121 -209.736 o
    0 0 z
  EndSpiro
EndSplineSet
Fore
SplineSet
420 230 m 2
 420 101 384 -10 270 -10 c 0
 146 -10 60 81 60 230 c 2
 60 500 l 9
 235 500 l 17
 235 230 l 2
 235 187 262 165 295 165 c 3
 328 165 355 187 355 230 c 2
 355 290 l 9
 420 290 l 17
 420 230 l 2
144 -128 m 1
 186 -155 212.989257812 -163 248 -163 c 3
 315.553710938 -163 355 -130 355 -78 c 2
 355 500 l 1
 530 500 l 1
 530 -82 l 2
 530 -226 414.00390625 -338 270 -338 c 3
 224 -338 186 -328 144 -307 c 1
 144 -128 l 1
EndSplineSet
EndChar

StartChar: w
Encoding: 119 119 17
Width: 885
Flags: HMW
LayerCount: 2
Fore
SplineSet
480 230 m 2
 480 71 412 0 295 0 c 2
 60 0 l 9
 60 500 l 1
 235 500 l 17
 235 175 l 17
 295 175 l 2
 328 175 355 187 355 230 c 2
 355 500 l 9
 480 500 l 17
 480 230 l 2
825 230 m 2
 825 81 724 -10 620 -10 c 0
 486 -10 405 71 405 230 c 2
 405 500 l 9
 530 500 l 17
 530 230 l 2
 530 187 560 165 590 165 c 3
 620 165 650 187 650 230 c 2
 650 500 l 9
 825 500 l 17
 825 230 l 2
EndSplineSet
EndChar

StartChar: uni0261
Encoding: 609 609 18
Width: 609
Flags: HMW
LayerCount: 2
Back
SplineSet
-7 -60 m 0
 -7 93 118 218 271 218 c 0
 424 218 549 93 549 -60 c 0
 549 -213 424 -338 271 -338 c 0
 118 -338 -7 -213 -7 -60 c 0
EndSplineSet
Fore
SplineSet
374 -38 m 2
 374 246 l 2
 374 309 337 335 299 335 c 3
 249 335 214 294 214 250 c 0
 214 205 250 165 299 165 c 0
 311.01953125 165 319.12109375 166.654296875 331 170.997070312 c 1
 331 -8.1669921875 l 1
 323.494140625 -9.0341796875 311.482421875 -10 299 -10 c 0
 155 -10 39 105 39 249 c 0
 39 393 155 510 299 510 c 0
 430 510 549 410 549 248 c 2
 549 -62 l 2
 549 -217 420.013671875 -338 269 -338 c 3
 217 -338 156 -321 123 -296 c 1
 123 -121 l 1
 159 -149 199.989257812 -163 247 -163 c 3
 324.553710938 -163 374 -115 374 -38 c 2
EndSplineSet
EndChar

StartChar: f
Encoding: 102 102 19
Width: 441
Flags: HMW
LayerCount: 2
Fore
SplineSet
320 838 m 7
 344 838 365 835 381 831 c 5
 381 656 l 5
 365 661 349 663 335 663 c 7
 287.447265625 663 235 630 235 558 c 2
 235 500 l 1
 376 500 l 1
 376 332 l 1
 235 332 l 1
 235 0 l 1
 60 0 l 1
 60 578 l 2
 60 726 175.99609375 838 320 838 c 7
  Spiro
    235 558 o
    235 500 v
    376 500 v
    376 332 v
    235 332 v
    235 0 v
    60 0 v
    320 838 o
    342.904 837.076 o
    363.427 834.589 o
    381 831 v
    381 656 v
    365.09 660.034 o
    349.577 662.298 o
    335 663 o
    287.984 651.809 o
    250.33 617.193 o
    235 558 [
    235 328 v
    60 328 v
    60 578 ]
    95.339 711.07 o
    0 0 z
  EndSpiro
EndSplineSet
EndChar

StartChar: t
Encoding: 116 116 20
Width: 441
Flags: HMW
LayerCount: 2
Fore
SplineSet
320 -10 m 3
 175.99609375 -10 60 102 60 250 c 2
 60 679 l 1
 235 679 l 5
 235 500 l 1
 376 500 l 1
 376 332 l 1
 235 332 l 1
 235 270 l 2
 235 198 287.447265625 165 335 165 c 3
 349 165 365 167 381 172 c 1
 381 -3 l 1
 365 -7 344 -10 320 -10 c 3
EndSplineSet
EndChar

StartChar: j
Encoding: 106 106 21
Width: 385
Flags: HMW
LayerCount: 2
Back
SplineSet
139 669 m 0
 139 724 184 769 239 769 c 0
 294 769 339 724 339 669 c 0
 339 614 294 569 239 569 c 0
 184 569 139 614 139 669 c 0
152 -328 m 9
 152 500 l 1
 327 500 l 1
 327 -328 l 17
 152 -328 l 9
EndSplineSet
Fore
SplineSet
151 500 m 1
 326 500 l 1
 326 -78 l 2
 326 -226 210.00390625 -338 66 -338 c 3
 42 -338 21 -335 5 -331 c 1
 5 -156 l 1
 21 -161 37 -163 51 -163 c 3
 98.552734375 -163 151 -130 151 -58 c 2
 151 500 l 1
138 679 m 0
 138 734 183 779 238 779 c 0
 293 779 338 734 338 679 c 0
 338 624 293 579 238 579 c 0
 183 579 138 624 138 679 c 0
EndSplineSet
EndChar

StartChar: c
Encoding: 99 99 22
Width: 420
Flags: HMW
LayerCount: 2
Back
SplineSet
299 510 m 3
 323 510 344 507 360 503 c 1
 360 328 l 1
 345 333 327 335 314 335 c 3
 234.991210938 335 214 283 214 250 c 2
 214 0 l 1
 39 0 l 1
 39 250 l 2
 39 398 154.99609375 510 299 510 c 3
EndSplineSet
Fore
SplineSet
312 165 m 3
 329 165 344 167 360 172 c 1
 360 -3 l 1
 344 -7 323 -10 299 -10 c 3
 149 -10 39 109 39 250 c 3
 39 391.00390625 148 510 299 510 c 3
 323 510 344 507 360 503 c 1
 360 328 l 1
 344 333 329.029296875 335 312 335 c 3
 245.9921875 335 214 293 214 250 c 3
 214 207 246 165 312 165 c 3
EndSplineSet
EndChar

StartChar: s
Encoding: 115 115 23
Width: 557
Flags: HMW
LayerCount: 2
Back
SplineSet
191 250 m 3
 191 398 306.99609375 510 451 510 c 3
 475 510 496 507 512 503 c 1
 512 328 l 1
 497 333 479 335 466 335 c 3
 386.991210938 335 366 283 366 250 c 3
 366 102 250.00390625 -10 106 -10 c 3
 82 -10 61 -7 45 -3 c 1
 45 172 l 1
 60 167 78 165 91 165 c 3
 170.008789062 165 191 217 191 250 c 3
EndSplineSet
Fore
SplineSet
191 270 m 0
 202 417 327 510 431 510 c 3
 465 510 496 507 512 503 c 1
 512 328 l 1
 497 333 479 335 466 335 c 3
 387 335 370.641601562 292.028320312 366 230 c 0
 355 83 230 -10 126 -10 c 3
 92 -10 61 -7 45 -3 c 1
 45 172 l 1
 60 167 78 165 91 165 c 3
 170 165 186.358398438 207.971679688 191 270 c 0
EndSplineSet
EndChar

StartChar: v
Encoding: 118 118 24
Width: 590
Flags: HMW
LayerCount: 2
Fore
SplineSet
530 230 m 2
 530 81 412 0 295 0 c 2
 60 0 l 9
 60 500 l 1
 235 500 l 17
 235 175 l 17
 295 175 l 2
 328 175 355 187 355 230 c 2
 355 500 l 9
 530 500 l 17
 530 230 l 2
EndSplineSet
EndChar

StartChar: k
Encoding: 107 107 26
Width: 606
Flags: HMW
LayerCount: 2
Fore
SplineSet
286 207 m 5
 212 207 l 29
 212 338 l 29
 286 338 l 5
 334 338 376 382 376 427 c 6
 376 500 l 9
 551 500 l 17
 551 427 l 6
 551 278 418 207 286 207 c 5
286 302 m 5
 418 302 551 231 551 82 c 6
 551 0 l 9
 376 0 l 17
 376 82 l 6
 376 127 334 171 286 171 c 5
 212 171 l 29
 212 302 l 29
 286 302 l 5
60 828 m 1
 235 828 l 1
 235 0 l 1
 60 0 l 1
 60 828 l 1
  Spiro
    60 828 v
    235 828 v
    235 0 v
    60 0 v
    0 0 z
  EndSpiro
EndSplineSet
EndChar

StartChar: z
Encoding: 122 122 27
Width: 493
Flags: HMW
LayerCount: 2
Back
SplineSet
446 -82 m 17
 446 -226 330.00390625 -338 186 -338 c 3
 140 -338 102 -328 60 -307 c 1
 60 -132 l 1
 102 -157 128.989257812 -163 164 -163 c 3
 231.553710938 -163 271 -130 271 -78 c 9
 446 -82 l 17
EndSplineSet
Fore
SplineSet
61 479 m 1
 100 499 139 510 186 510 c 3
 332 510 442 393.950195312 442 260 c 3
 442 119 316 45 190 45 c 2
 68 45 l 1
 68 169 l 1
 140 169 l 2
 254 169 267 211 267 255 c 3
 267 310 221.009765625 335 162 335 c 3
 117.950195312 335 93 322 61 304 c 1
 61 479 l 1
60 -307 m 1
 60 -132 l 1
 92 -150 117.950195312 -163 162 -163 c 3
 221.009765625 -163 273 -138 273 -83 c 3
 273 -39 254 3 140 3 c 2
 68 3 l 1
 68 127 l 1
 190 128 l 2
 316 128 448 53 448 -88 c 3
 448 -221.950195312 332 -338 186 -338 c 3
 139 -338 99 -327 60 -307 c 1
EndSplineSet
EndChar

StartChar: .notdef
Encoding: 1114112 -1 28
Width: 652
Flags: HMW
LayerCount: 2
Back
SplineSet
550 753 m 5
 173 30 l 5
 99 76 l 5
 476 799 l 5
 550 753 l 5
99 753 m 5
 173 799 l 5
 550 76 l 5
 476 30 l 5
 99 753 l 5
170 728 m 1
 170 100 l 1
 482 100 l 1
 482 728 l 1
 170 728 l 1
70 828 m 1
 582 828 l 1
 582 0 l 1
 70 0 l 1
 70 828 l 1
EndSplineSet
Fore
SplineSet
562 743 m 1
 164 29 l 1
 90 85 l 1
 488 799 l 1
 562 743 l 1
90 743 m 1
 164 799 l 1
 562 85 l 5
 488 29 l 5
 90 743 l 1
186 712 m 1
 186 116 l 1
 466 116 l 1
 466 712 l 1
 186 712 l 1
70 828 m 1
 582 828 l 1
 582 0 l 1
 70 0 l 1
 70 828 l 1
EndSplineSet
EndChar

StartChar: period
Encoding: 46 46 29
Width: 364
Flags: HMW
LayerCount: 2
Fore
SplineSet
80 92 m 0
 80 148 126 194 182 194 c 0
 238 194 284 148 284 92 c 0
 284 36 238 -10 182 -10 c 0
 126 -10 80 36 80 92 c 0
EndSplineSet
EndChar

StartChar: comma
Encoding: 44 44 30
Width: 364
Flags: HMW
LayerCount: 2
Back
SplineSet
77.5 92 m 0
 77.5 150 121.5 194 179.5 194 c 0
 244.5 194 287.5 136 287.5 41 c 0
 287.5 -58 240.5 -146 179.5 -146 c 1
 179.5 -10 l 1
 121.5 -10 77.5 34 77.5 92 c 0
28.5 43 m 0
 28.5 126 96.5 194 179.5 194 c 0
 262.5 194 330.5 126 330.5 43 c 0
 330.5 -40 262.5 -108 179.5 -108 c 0
 96.5 -108 28.5 -40 28.5 43 c 0
77.5 92 m 0
 77.5 148 123.5 194 179.5 194 c 0
 235.5 194 281.5 148 281.5 92 c 0
 281.5 36 235.5 -10 179.5 -10 c 0
 123.5 -10 77.5 36 77.5 92 c 0
EndSplineSet
Fore
SplineSet
78 92 m 0
 78 148 124 194 180 194 c 0
 236 194 286 150 286 52 c 0
 286 -60 226 -132 180 -132 c 1
 180 -10 l 1
 124 -10 78 36 78 92 c 0
EndSplineSet
EndChar

StartChar: question
Encoding: 63 63 34
Width: 488
Flags: HMW
LayerCount: 2
Back
SplineSet
110 92.25 m 4
 110 148.25 156 194.25 212 194.25 c 4
 268 194.25 314 148.25 314 92.25 c 4
 314 36.25 268 -9.75 212 -9.75 c 4
 156 -9.75 110 36.25 110 92.25 c 4
299 503 m 5
 299 273 l 5
 124 273 l 5
 124 503 l 5
 299 503 l 5
164 503 m 21
 208 503 244 539 244 583 c 4
 244 627 208 663 164 663 c 4
 136.682617188 663 112.44921875 649.124023438 98 628.072265625 c 5
 98 829.40234375 l 5
 119.045898438 835.010742188 141.168945312 838 164 838 c 4
 305 838 419 724 419 583 c 4
 419 442 305 328 164 328 c 13
 164 503 l 21
766 493 m 3
 832 493 864 535 864 578 c 3
 864 621 832.0078125 663 766 663 c 3
 748.970703125 663 734 661 718 656 c 1
 718 831 l 1
 734 835 755 838 779 838 c 3
 930 838 1039 719.00390625 1039 578 c 3
 1039 437 929 318 779 318 c 3
 755 318 734 321 718 325 c 1
 718 500 l 1
 734 495 749 493 766 493 c 3
104 583 m 0
 104 539 140 503 184 503 c 0
 228 503 264 539 264 583 c 0
 264 627 228 663 184 663 c 0
 140 663 104 627 104 583 c 0
-71 583 m 0
 -71 724 43 838 184 838 c 0
 325 838 439 724 439 583 c 0
 439 442 325 328 184 328 c 0
 43 328 -71 442 -71 583 c 0
EndSplineSet
Fore
SplineSet
444 582 m 3
 444 440.99609375 335 322 184 322 c 3
 160 322 139 325 123 329 c 1
 123 504 l 1
 139 499 153.970703125 497 171 497 c 3
 237.0078125 497 269 539 269 582 c 3
 269 634 229.553710938 663 162 663 c 3
 126.989257812 663 100 655 58 628 c 1
 58 807 l 1
 100 828 138 838 184 838 c 3
 328.00390625 838 444 726 444 582 c 3
123 497 m 1
 298 497 l 1
 298 273 l 1
 123 273 l 1
 123 497 l 1
109 92.25 m 0
 109 148.25 155 194.25 211 194.25 c 0
 267 194.25 313 148.25 313 92.25 c 0
 313 36.25 267 -9.75 211 -9.75 c 0
 155 -9.75 109 36.25 109 92.25 c 0
EndSplineSet
EndChar

StartChar: if
Encoding: 58992 58992 36
Width: 295
Flags: HMW
LayerCount: 2
Fore
SplineSet
60 500 m 5
 235 500 l 5
 235 0 l 5
 60 0 l 5
 60 500 l 5
EndSplineSet
EndChar

StartChar: axe
Encoding: 58987 58987 48
Width: 620
Flags: HMW
LayerCount: 2
Back
SplineSet
60 92 m 0
 60 230 172 342 310 342 c 0
 448 342 560 230 560 92 c 0
 560 -46 448 -158 310 -158 c 0
 172 -158 60 -46 60 92 c 0
235 92 m 0
 235 133 269 167 310 167 c 0
 351 167 385 133 385 92 c 0
 385 51 351 17 310 17 c 0
 269 17 235 51 235 92 c 0
EndSplineSet
Fore
SplineSet
310 207 m 24
 444 207 560 283 560 427 c 2
 560 500 l 9
 385 500 l 17
 385 417 l 2
 385 372 348 342 310 342 c 3
 272 342 235 372 235 417 c 2
 235 828 l 9
 60 828 l 17
 60 427 l 2
 60 283 176 207 310 207 c 24
310 167 m 0
 349 167 385 137 385 92 c 2
 385 0 l 9
 560 0 l 17
 560 82 l 2
 560 226 442 302 310 302 c 3
 178 302 60 226 60 82 c 2
 60 0 l 9
 235 0 l 17
 235 92 l 2
 235 137 271 167 310 167 c 0
EndSplineSet
EndChar

StartChar: eat
Encoding: 58993 58993 50
Width: 590
Flags: HMW
LayerCount: 2
Back
SplineSet
60 270 m 2
 60 419 178 500 295 500 c 2
 530 500 l 9
 530 0 l 1
 355 0 l 17
 355 325 l 17
 295 325 l 2
 262 325 235 313 235 270 c 2
 235 0 l 9
 60 0 l 17
 60 270 l 2
EndSplineSet
Fore
Refer: 24 118 N -1 0 0 -1 590 500 2
EndChar

StartChar: haha
Encoding: 58978 58978 51
Width: 511
Flags: HMW
LayerCount: 2
Back
SplineSet
235 0 m 1
 60 0 l 1
 60 578 l 2
 60 726 175.99609375 838 320 838 c 3
 344 838 365 835 381 831 c 1
 381 656 l 1
 365 661 349 663 335 663 c 3
 287.447265625 663 235 630 235 558 c 2
 235 0 l 1
EndSplineSet
Fore
SplineSet
235 0 m 1
 60 0 l 1
 60 562 l 18
 60 722 183.986328125 838 350 838 c 3
 398 838 437 830 466 816 c 1
 466 641 l 1
 434 658 410.010742188 663 372 663 c 3
 279.446289062 663 235 620 235 538 c 10
 235 0 l 1
EndSplineSet
EndChar

StartChar: shush
Encoding: 58972 58972 53
Width: 531
Flags: HMW
LayerCount: 2
Fore
SplineSet
235 828 m 1
 235 310 l 18
 235 223 284.446289062 165 382 165 c 3
 429.010742188 165 450 169 486 187 c 1
 486 12 l 1
 453 -3 412 -10 360 -10 c 3
 188.986328125 -10 60 121 60 286 c 10
 60 828 l 1
 235 828 l 1
EndSplineSet
EndChar

StartChar: thoth
Encoding: 58966 58966 54
Width: 426
Flags: HMW
LayerCount: 2
Fore
SplineSet
191 270 m 2
 191 558 l 2
 191 630 138.552734375 663 91 663 c 3
 77 663 61 661 45 656 c 1
 45 831 l 1
 61 835 82 838 106 838 c 3
 250.00390625 838 366 726 366 578 c 2
 366 250 l 2
 366 102 250.00390625 -10 106 -10 c 3
 82 -10 61 -7 45 -3 c 1
 45 172 l 1
 61 167 77 165 91 165 c 3
 138.552734375 165 191 198 191 270 c 2
EndSplineSet
EndChar

StartChar: sis
Encoding: 58970 58970 57
Width: 557
Flags: HMW
LayerCount: 2
Fore
SplineSet
191 270 m 2
 191 578 l 2
 191 726 306.99609375 838 451 838 c 3
 475 838 496 835 512 831 c 1
 512 656 l 1
 496 661 480 663 466 663 c 3
 418.447265625 663 366 630 366 558 c 2
 366 250 l 2
 366 102 250.00390625 -10 106 -10 c 3
 82 -10 61 -7 45 -3 c 1
 45 172 l 1
 61 167 77 165 91 165 c 3
 138.552734375 165 191 198 191 270 c 2
EndSplineSet
EndChar

StartChar: bob
Encoding: 58961 58961 60
Width: 609
Flags: HMW
LayerCount: 2
Fore
SplineSet
299 -163 m 3
 337 -163 374 -137 374 -74 c 2
 374 500 l 9
 549 500 l 17
 549 -76 l 2
 549 -238 430 -338 299 -338 c 0
 155 -338 39 -221 39 -77 c 0
 39 67 155 182 299 182 c 0
 311.482421875 182 323.494140625 181.034179688 331 180.166992188 c 1
 331 1.0029296875 l 1
 319.12109375 5.345703125 311.01953125 7 299 7 c 0
 250 7 214 -33 214 -78 c 0
 214 -122 249 -163 299 -163 c 3
EndSplineSet
EndChar

StartChar: zhivago
Encoding: 58973 58973 62
Width: 609
Flags: HMW
LayerCount: 2
Fore
SplineSet
374 210 m 2
 374 287 324.553710938 335 247 335 c 3
 199.989257812 335 159 321 123 293 c 1
 123 468 l 1
 156 493 217 510 269 510 c 3
 420.013671875 510 549 389 549 234 c 2
 549 -76 l 2
 549 -238 430 -338 299 -338 c 0
 155 -338 39 -221 39 -77 c 0
 39 67 155 182 299 182 c 0
 311.482421875 182 323.494140625 181.034179688 331 180.166992188 c 1
 331 1.0029296875 l 1
 319.12109375 5.345703125 311.01953125 7 299 7 c 0
 250 7 214 -33 214 -78 c 0
 214 -122 249 -163 299 -163 c 3
 337 -163 374 -137 374 -74 c 2
 374 210 l 2
EndSplineSet
EndChar

StartChar: loch
Encoding: 58985 58985 63
Width: 784
Flags: HMW
LayerCount: 2
Back
SplineSet
549 255 m 6
 549 298 520 335 469 335 c 4
 469 510 l 7
 619 510 724 396 724 255 c 6
 724 0 l 4
 549 0 l 4
 549 255 l 6
294 828 m 5
 469 828 l 5
 469 0 l 5
 294 0 l 5
 294 828 l 5
294 335 m 7
 243 335 214 298 214 255 c 7
 214 212 243 175 294 175 c 4
 294 0 l 7
 144 0 39 114 39 255 c 7
 39 396 143 510 294 510 c 4
 294 335 l 7
-322 165 m 1
 -320 165 -319 165 -317 165 c 0
 -251 165 -219 202 -219 245 c 0
 -219 288 -251 325 -317 325 c 0
 -365 325 l 1
 -365 500 l 1
 -304 500 l 0
 -154 500 -44 386 -44 245 c 0
 -44 104 -153 -10 -304 -10 c 0
 -310 -10 -313 -10 -322 -9 c 1
 -322 165 l 1
-540 828 m 1
 -365 828 l 1
 -365 0 l 1
 -540 0 l 1
 -540 828 l 1
-588 175 m 0
 -540 175 l 1
 -540 0 l 1
 -601 0 l 3
 -751 0 -861 109 -861 250 c 3
 -861 391 -752 500 -601 500 c 0
 -540 500 l 1
 -540 325 l 1
 -588 325 l 3
 -654 325 -686 293 -686 250 c 3
 -686 207 -654 175 -588 175 c 0
EndSplineSet
Fore
SplineSet
294 335 m 1
 243 335 214 298 214 255 c 0
 214 212 243 175 294 175 c 1
 294 0 l 1
 144 0 39 114 39 255 c 0
 39 396 143 510 294 510 c 1
 294 335 l 1
294 828 m 1
 469 828 l 1
 469 0 l 1
 294 0 l 1
 294 828 l 1
512 186 m 1
 536 200 549 226 549 255 c 0
 549 298 520 335 469 335 c 1
 469 510 l 1
 619 510 724 396 724 255 c 0
 724 128 639 19 512 0 c 1
 512 186 l 1
EndSplineSet
EndChar

StartChar: church
Encoding: 58974 58974 64
Width: 782
Flags: HMW
LayerCount: 2
Fore
SplineSet
86 325 m 3
 72 325 58 326 45 330 c 1
 45 505 l 1
 60 501 77 500 91 500 c 3
 203.552734375 500 311 592.959960938 311 720 c 2
 311 763 l 1
 386 763 l 1
 386 700 l 2
 386 482 300.00390625 325 86 325 c 3
486 828 m 1
 486 310 l 18
 486 223 535.446289062 165 633 165 c 3
 680.010742188 165 701 169 737 187 c 1
 737 12 l 1
 704 -3 663 -10 611 -10 c 3
 439.986328125 -10 311 121 311 286 c 10
 311 828 l 1
 486 828 l 1
EndSplineSet
EndChar

StartChar: inkling
Encoding: 58980 58980 67
Width: 630
Flags: HMW
LayerCount: 2
Back
SplineSet
60 243 m 2
 60 384 189 458 315 458 c 0
 441 458 570 384 570 243 c 2
 570 0 l 9
 395 0 l 17
 395 248 l 2
 395 292 359 328 315 328 c 0
 271 328 235 292 235 248 c 2
 235 0 l 9
 60 0 l 17
 60 243 l 2
395 583 m 0
 395 627 359 663 315 663 c 0
 271 663 235 627 235 583 c 0
 235 539 271 503 315 503 c 0
 359 503 395 539 395 583 c 0
570 588 m 0
 570 447 441 373 315 373 c 0
 189 373 60 447 60 588 c 0
 60 722 174 838 315 838 c 0
 456 838 570 722 570 588 c 0
EndSplineSet
Fore
SplineSet
395 583 m 2
 395 627 359 663 315 663 c 0
 271 663 235 627 235 583 c 2
 235 369 l 2
 235 325 271 289 315 289 c 0
 359 289 395 325 395 369 c 2
 395 583 l 2
60 588 m 2
 60 722 174 838 315 838 c 0
 456 838 570 722 570 588 c 2
 570 374 l 2
 570 233 441 159 315 159 c 0
 189 159 60 233 60 374 c 2
 60 588 l 2
60 29 m 2
 60 170 189 244 315 244 c 0
 441 244 570 170 570 29 c 2
 570 0 l 9
 395 0 l 17
 395 34 l 2
 395 78 359 114 315 114 c 0
 271 114 235 78 235 34 c 2
 235 0 l 9
 60 0 l 17
 60 29 l 2
EndSplineSet
EndChar

StartChar: nun
Encoding: 58982 58982 68
Width: 572
Flags: HMW
LayerCount: 2
Back
SplineSet
63 215 m 0
 63 338 163 438 286 438 c 0
 409 438 509 338 509 215 c 0
 509 92 409 -8 286 -8 c 0
 163 -8 63 92 63 215 c 0
234 216 m 0
 234 245 257 268 286 268 c 0
 315 268 338 245 338 216 c 0
 338 187 315 164 286 164 c 0
 257 164 234 187 234 216 c 0
EndSplineSet
Fore
SplineSet
235 494 m 2
 235 464 258 442 286 442 c 0
 314 442 337 464 337 494 c 2
 337 500 l 25
 512 500 l 25
 512 499 l 2
 512 358 392 312 286 312 c 0
 180 312 60 358 60 499 c 2
 60 500 l 25
 235 500 l 25
 235 494 l 2
235 216 m 0
 235 186 258 165 286 165 c 0
 314 165 337 186 337 216 c 0
 337 246 314 267 286 267 c 0
 258 267 235 246 235 216 c 0
60 211 m 0
 60 352 180 397 286 397 c 0
 392 397 512 352 512 211 c 0
 512 97 414 -10 286 -10 c 0
 159 -10 60 97 60 211 c 0
EndSplineSet
EndChar

StartChar: deed
Encoding: 58963 58963 69
Width: 546
Flags: HMW
LayerCount: 2
Back
SplineSet
235 -220 m 4
 235 -99 334 0 455 0 c 4
 576 0 675 -99 675 -220 c 4
 675 -341 576 -440 455 -440 c 4
 334 -440 235 -341 235 -220 c 4
EndSplineSet
Fore
SplineSet
60 500 m 1
 235 500 l 1
 235 -328 l 1
 60 -328 l 1
 60 500 l 1
460 175 m 3
 474 175 488 174 501 170 c 1
 501 -5 l 1
 486 -1 469 0 455 0 c 3
 342.447265625 0 235 -92.9599609375 235 -220 c 2
 235 -263 l 1
 160 -263 l 1
 160 -200 l 2
 160 18 245.99609375 175 460 175 c 3
EndSplineSet
EndChar

StartChar: pipe
Encoding: 58960 58960 70
Width: 590
Flags: HMW
LayerCount: 2
Fore
SplineSet
60 598 m 2
 60 747 178 838 295 838 c 0
 412 838 530 747 530 598 c 2
 530 0 l 9
 355 0 l 17
 355 598 l 2
 355 641 328 663 295 663 c 3
 262 663 235 641 235 598 c 2
 235 325 l 9
 60 325 l 17
 60 598 l 2
EndSplineSet
EndChar

StartChar: kick
Encoding: 58964 58964 71
Width: 420
Flags: HMW
LayerCount: 2
Fore
SplineSet
100 838 m 3
 244.00390625 838 360 726 360 578 c 2
 360 403 l 1
 185 403 l 1
 185 558 l 2
 185 630.040039062 132.552734375 663 85 663 c 3
 71 663 55 661 39 656 c 1
 39 831 l 1
 55 835 76 838 100 838 c 3
312 165 m 3
 329 165 344 167 360 172 c 1
 360 -3 l 1
 344 -7 323 -10 299 -10 c 3
 149 -10 39 109 39 250 c 3
 39 391.00390625 148 510 299 510 c 3
 323 510 344 507 360 503 c 1
 360 328 l 1
 344 333 329.029296875 335 312 335 c 3
 245.9921875 335 214 293 214 250 c 3
 214 207 246 165 312 165 c 3
EndSplineSet
EndChar

StartChar: gig
Encoding: 58965 58965 72
Width: 600
Flags: HMWO
LayerCount: 2
Back
SplineSet
303 -3 m 0
 259 -3 220 -39 220 -83 c 0
 220 -127 259 -163 303 -163 c 0
 347 -163 386 -127 386 -83 c 0
 386 -39 347 -3 303 -3 c 0
303 127 m 0
 303 41 l 0
 177 41 55 125 55 256 c 0
 55 390 171 510 323 510 c 3
 396 510 446 487 475 465 c 1
 475 297 l 1
 431 327 385 342 333 342 c 3
 270 342 230 306 230 258 c 3
 230 206 267.03080794 175.275735152 313 170 c 0
 459.810867111 153.150992705 561 46 561 -88 c 0
 561 -222 444 -338 303 -338 c 0
 162 -338 45 -222 45 -88 c 0
 45 43 177 127 303 127 c 0
-591 234 m 17
 -591 389 -462.013671875 510 -311 510 c 3
 -259 510 -198 493 -165 468 c 1
 -165 293 l 1
 -201 321 -241.989257812 335 -289 335 c 3
 -366.553710938 335 -416 287 -416 210 c 9
 -591 234 l 17
-328 510 m 17
 -186 510 -70 390 -70 256 c 9
 -245 258 l 17
 -245 306 -288 342 -328 342 c 9
 -328 510 l 17
-407 -83 m 0
 -407 -127 -371 -163 -327 -163 c 0
 -283 -163 -247 -127 -247 -83 c 0
 -247 -39 -283 -3 -327 -3 c 0
 -371 -3 -407 -39 -407 -83 c 0
-582 -88 m 0
 -582 53 -453 127 -327 127 c 0
 -201 127 -72 53 -72 -88 c 0
 -72 -222 -186 -338 -327 -338 c 0
 -468 -338 -582 -222 -582 -88 c 0
EndSplineSet
Fore
SplineSet
303 4 m 0
 176 21 55 115 55 256 c 0
 55 390 171 510 323 510 c 3
 396 510 446 487 475 465 c 1
 475 297 l 1
 432 328 386.009765625 342 333 342 c 3
 267 342 230 306 230 258 c 3
 230 209 260.294921875 179.088867188 303 174 c 0
 448.953125 156.607421875 561 53 561 -81 c 0
 561 -228 436 -338 303 -338 c 0
 171 -338 45 -227 45 -86 c 0
 45 -65 51 -36 57 -23 c 1
 248 -23 l 1
 232 -33 220 -58 220 -79 c 0
 220 -123 259 -163 303 -163 c 0
 347 -163 386 -123 386 -79 c 3
 386 -31 342.646484375 -1.306640625 303 4 c 0
EndSplineSet
EndChar

StartChar: loll
Encoding: 58983 58983 73
Width: 572
Flags: HMW
LayerCount: 2
Back
SplineSet
191 270 m 0
 202 417 327 510 431 510 c 3
 465 510 496 507 512 503 c 1
 512 328 l 1
 497 333 479 335 466 335 c 3
 387 335 370.641601562 292.028320312 366 230 c 0
 355 83 230 -10 126 -10 c 7
 92 -10 61 -7 45 -3 c 5
 45 172 l 5
 60 167 78 165 91 165 c 7
 170 165 186.358398438 207.971679688 191 270 c 0
EndSplineSet
Fore
SplineSet
45 172 m 1
 60 167 78 165 91 165 c 3
 160 165 205 211 205 290 c 3
 205 303 203 321 198 336 c 1
 213 331 231 329 244 329 c 3
 313 329 358 375 358 454 c 3
 358 467 356 485 351 500 c 1
 526 500 l 1
 530 484 533 453 533 419 c 3
 533 323.603484093 461.640625 190.709960938 357.684570312 190.709960938 c 0
 348.669921875 190.709960938 346 191 338 193 c 1
 342.146484375 179.22265625 342.0703125 173.709960938 342.0703125 161.5625 c 0
 342.0703125 63.3212890625 218.34389383 -10 126 -10 c 3
 92 -10 61 -7 45 -3 c 1
 45 172 l 1
EndSplineSet
EndChar

StartChar: age.alt
Encoding: 1114113 -1 75
Width: 435
Flags: HMW
LayerCount: 2
Back
SplineSet
213 349 m 0
 213 319 236 298 264 298 c 0
 292 298 315 319 315 349 c 0
 315 379 292 400 264 400 c 0
 236 400 213 379 213 349 c 0
61 346 m 0
 61 437 134 510 225 510 c 0
 316 510 389 437 389 346 c 0
 389 255 316 182 225 182 c 0
 134 182 61 255 61 346 c 0
320 -10 m 3
 344 -10 365 -7 381 -3 c 1
 381 172 l 1
 365 167 349 165 335 165 c 3
 287.447265625 165 235 197.959960938 235 270 c 2
 235 500 l 1
 60 500 l 1
 60 250 l 2
 60 102 175.99609375 -10 320 -10 c 3
EndSplineSet
Fore
SplineSet
320 -10 m 0
 176 -10 60 102 60 250 c 2
 60 346 l 2
 60 427 127 510 242 510 c 0
 323 510 390 446 390 347 c 3
 390 272 336.03125 223 267 223 c 3
 264 223 259 224 257 225 c 1
 256 299 l 1
 260 298 262 298 264 298 c 3
 286 298 315 314 315 349 c 3
 315 380.016601562 291 400 264 400 c 3
 232.983398438 400 213 376 213 348 c 2
 213 270 l 2
 213 202.09375 270 165 326 165 c 0
 350 165 365 167 381 172 c 1
 381 -3 l 1
 365 -7 344 -10 320 -10 c 0
EndSplineSet
EndChar

StartChar: qsbracketleft
Encoding: 58990 58990 77
Width: 385
Flags: HMW
LayerCount: 2
Fore
SplineSet
219 838 m 25
 219 -163 l 25
 365 -163 l 1
 365 -338 l 1
 44 -338 l 25
 44 838 l 25
 219 838 l 25
EndSplineSet
EndChar

StartChar: exclam
Encoding: 33 33 79
Width: 364
Flags: HMW
LayerCount: 2
Fore
SplineSet
80 92 m 0
 80 148 126 194 182 194 c 0
 238 194 284 148 284 92 c 0
 284 36 238 -10 182 -10 c 0
 126 -10 80 36 80 92 c 0
94 828 m 1
 269 828 l 1
 269 273 l 1
 94 273 l 1
 94 828 l 1
EndSplineSet
EndChar

StartChar: oil.alt
Encoding: 1114115 -1 80
Width: 429
Flags: HMW
LayerCount: 2
Fore
SplineSet
369 0 m 9
 369 346 l 2
 369 427 302 510 187 510 c 0
 106 510 39 446 39 347 c 3
 39 272 92.96875 223 162 223 c 3
 165 223 170 224 172 225 c 1
 173 299 l 1
 169 298 167 298 165 298 c 3
 143 298 114 314 114 349 c 3
 114 380.016601562 138 400 165 400 c 3
 196.016601562 400 216 376 216 348 c 2
 216 0 l 17
 369 0 l 9
EndSplineSet
EndChar

StartChar: age
Encoding: 58995 58995 82
Width: 640
Flags: HMW
LayerCount: 2
Fore
SplineSet
320 175 m 2
 580 175 l 1
 580 0 l 1
 320 0 l 2
 170 0 60 109 60 250 c 2
 60 500 l 1
 235 500 l 1
 235 255 l 2
 235 217 269 175 320 175 c 2
278 506.836914062 m 1
 291.579101562 508.91796875 305.598632812 510 320 510 c 0
 473 510 580 388 580 250 c 0
 580 239 579 229 578 218 c 1
 399 218 l 1
 403 228 405 239 405 250 c 0
 405 293 371 335 320 335 c 0
 304.200195312 335 290.03125 330.96875 278 324.274414062 c 1
 278 506.836914062 l 1
EndSplineSet
EndChar

StartChar: out
Encoding: 59003 59003 84
Width: 630
Flags: HMW
LayerCount: 2
Fore
SplineSet
560 325 m 1
 310 325 l 2
 272 325 235 304 235 246 c 2
 235 0 l 1
 60 0 l 1
 60 248 l 2
 60 405 179 500 310 500 c 2
 560 500 l 1
 560 325 l 1
567.922851562 282 m 1
 569.293945312 271.247070312 570 260.236328125 570 249 c 0
 570 105 454 -10 310 -10 c 0
 297.517578125 -10 285.505859375 -9.0341796875 278 -8.1669921875 c 1
 278 170.997070312 l 1
 289.87890625 166.654296875 297.98046875 165 310 165 c 0
 359 165 395 205 395 250 c 0
 395 261.698242188 392.526367188 272.477539062 387.954101562 282 c 1
 567.922851562 282 l 1
EndSplineSet
EndChar

StartChar: hyphen
Encoding: 45 45 89
Width: 471
Flags: HMW
LayerCount: 2
Back
SplineSet
70 268 m 1
 395 268 l 1
 395 243 l 1
 70 243 l 1
 70 268 l 1
EndSplineSet
Fore
SplineSet
60 340 m 1
 405 340 l 1
 405 172 l 1
 60 172 l 1
 60 340 l 1
EndSplineSet
EndChar

StartChar: emdash
Encoding: 8212 8212 90
Width: 1000
Flags: HMW
LayerCount: 2
Fore
SplineSet
0 340 m 1
 1000 340 l 1
 1000 172 l 1
 0 172 l 1
 0 340 l 1
EndSplineSet
EndChar

StartChar: periodcentered
Encoding: 183 183 92
Width: 364
Flags: HMW
LayerCount: 2
Back
SplineSet
60 340 m 5
 405 340 l 5
 405 172 l 5
 60 172 l 5
 60 340 l 5
EndSplineSet
Fore
Refer: 29 46 N 1 0 0 1 0 163 2
EndChar

StartChar: eight
Encoding: 56 56 96
Width: 615
Flags: HMW
LayerCount: 2
Fore
SplineSet
380 580 m 0
 380 624 344 660 300 660 c 0
 256 660 220 624 220 580 c 0
 220 536 256 500 300 500 c 0
 344 500 380 536 380 580 c 0
555 585 m 0
 555 444 426 370 300 370 c 0
 174 370 45 444 45 585 c 0
 45 719 159 838 300 838 c 0
 441 838 555 719 555 585 c 0
220 245 m 0
 220 201 256 165 300 165 c 0
 344 165 380 201 380 245 c 0
 380 289 344 325 300 325 c 0
 256 325 220 289 220 245 c 0
45 240 m 0
 45 381 174 455 300 455 c 0
 426 455 555 381 555 240 c 0
 555 106 441 -10 300 -10 c 0
 159 -10 45 106 45 240 c 0
EndSplineSet
EndChar

StartChar: one
Encoding: 49 49 97
Width: 426
Flags: MW
LayerCount: 2
Fore
SplineSet
106 548 m 3
 82 548 61 551 45 555 c 1
 45 730 l 1
 61 725 77 723 91 723 c 3
 138.552734375 723 191 755.959960938 191 828 c 1
 366 828 l 1
 366 808 l 2
 366 660 250.00390625 548 106 548 c 3
191 828 m 1
 366 828 l 1
 366 0 l 1
 191 0 l 1
 191 828 l 1
EndSplineSet
EndChar

StartChar: zero
Encoding: 48 48 98
Width: 640
Flags: MW
LayerCount: 2
Fore
SplineSet
320 663 m 3
 269 663 235 621 235 578 c 2
 235 250 l 2
 235 207 269 165 320 165 c 3
 371 165 405 207 405 250 c 2
 405 578 l 2
 405 621 371 663 320 663 c 3
  Spiro
    235 250 o
    245.239 208.001 o
    274.445 177.014 o
    320 165 o
    365.555 177.014 o
    394.761 208.001 o
    405 250 o
    394.761 291.999 o
    365.555 322.986 o
    320 335 o
    274.445 322.986 o
    245.239 291.999 o
    0 0 z
  EndSpiro
320 838 m 3
 473 838 580 716.006835938 580 578 c 2
 580 250 l 2
 580 111 473 -10 320 -10 c 3
 170 -10 60 109 60 250 c 2
 60 578 l 2
 60 719.00390625 169 838 320 838 c 3
EndSplineSet
EndChar

StartChar: five
Encoding: 53 53 99
Width: 420
Flags: MW
LayerCount: 2
Fore
SplineSet
60 828 m 25
 379 828 l 1
 379 663 l 1
 235 663 l 25
 235 403 l 1
 60 403 l 1
 60 828 l 25
108 165 m 3
 174 165 206 207 206 250 c 3
 206 293 174.0078125 335 108 335 c 3
 90.970703125 335 76 333 60 328 c 1
 60 503 l 1
 76 507 97 510 121 510 c 3
 272 510 381 391.00390625 381 250 c 3
 381 109 271 -10 121 -10 c 3
 97 -10 76 -7 60 -3 c 1
 60 172 l 1
 76 167 91 165 108 165 c 3
EndSplineSet
EndChar

StartChar: two
Encoding: 50 50 100
Width: 600
Flags: HMW
LayerCount: 2
Fore
SplineSet
561 0 m 0
 105 0 l 0
 105 177 l 0
 105 321 151.617783042 433.822731813 309 477 c 0
 379.761097945 496.413063065 381 537 381 581 c 3
 381 620.293945312 344 670 268 670 c 3
 201.990234375 670 164 658 116 625 c 1
 116 793 l 1
 147 815 195 838 278 838 c 3
 430 838 556 713 556 579 c 0
 556 435 484.097799461 366.459258424 344 321 c 0
 292.909666336 304.422090212 280 247 280 179 c 0
 280 175 l 0
 561 175 l 0
 561 0 l 0
EndSplineSet
EndChar

StartChar: four
Encoding: 52 52 101
Width: 672
Flags: MW
LayerCount: 2
Back
SplineSet
428 578 m 1
 453 578 l 1
 453 0 l 1
 428 0 l 1
 428 578 l 1
76 297 m 1
 562 297 l 1
 562 272 l 1
 76 272 l 1
 76 297 l 1
306 828 m 1
 331 828 l 1
 331 532 l 2
 331 387 225 278 76 278 c 0
 76 297 l 3
 210 297 306 403 306 532 c 2
 306 828 l 1
556 0 m 1
 381 0 l 1
 381 321 l 1
 81 321 l 1
 81 828 l 1
 256 828 l 1
 256 496 l 1
 381 496 l 1
 381 828 l 1
 556 828 l 1
 556 0 l 1
EndSplineSet
Fore
SplineSet
437 828 m 1
 612 828 l 1
 612 0 l 1
 437 0 l 1
 437 828 l 1
45 420 m 1
 527 420 l 1
 527 250 l 1
 45 250 l 1
 45 420 l 1
152 828 m 1
 327 828 l 1
 327 541 l 2
 327 387.075195312 199.689453125 325 45 325 c 25
 45 420 l 17
 112.553710938 420 152 493 152 545 c 2
 152 828 l 1
EndSplineSet
EndChar

StartChar: seven
Encoding: 55 55 102
Width: 587
Flags: MW
LayerCount: 2
Back
SplineSet
69 828 m 1
 484 828 l 1
 484 0 l 1
 309 0 l 1
 309 653 l 1
 69 653 l 1
 69 828 l 1
EndSplineSet
Fore
SplineSet
542 658 m 1
 45 658 l 1
 45 828 l 1
 542 828 l 1
 542 658 l 1
435 0 m 1
 260 0 l 1
 260 537 l 2
 260 690.924804688 387.310546875 753 542 753 c 25
 542 658 l 17
 474.446289062 658 435 585 435 533 c 2
 435 0 l 1
EndSplineSet
EndChar

StartChar: O
Encoding: 79 79 103
Width: 926
Flags: MW
LayerCount: 2
Fore
SplineSet
220 414 m 0
 220 272 323 171 463 171 c 0
 603 171 706 272 706 414 c 0
 706 556 603 657 463 657 c 0
 323 657 220 556 220 414 c 0
39 414 m 0
 39 648 229 838 463 838 c 0
 697 838 887 648 887 414 c 0
 887 180 697 -10 463 -10 c 0
 229 -10 39 180 39 414 c 0
EndSplineSet
EndChar

StartChar: Q
Encoding: 81 81 104
Width: 947
Flags: MW
LayerCount: 2
Fore
SplineSet
463 0 m 2
 229 0 39 185 39 414 c 0
 39 648 229 838 463 838 c 0
 697 838 887 648 887 414 c 0
 887 345.709503664 870.817618908 281.166506107 842.081849395 224 c 1
 620.012031098 224 l 1
 673.424379339 267.251858046 706 334.142431707 706 414 c 0
 706 556 603 657 463 657 c 0
 323 657 220 556 220 414 c 0
 220 277 323 181 463 181 c 2
 887 181 l 1
 887 0 l 1
 463 0 l 2
EndSplineSet
EndChar

StartChar: C
Encoding: 67 67 105
Width: 623
Flags: MW
LayerCount: 2
Fore
SplineSet
39 414 m 0
 39 648 229 838 463 838 c 0
 497 838 531 834 563 826 c 1
 563 638 l 1
 533 650 499 657 463 657 c 0
 323 657 220 556 220 414 c 0
 220 272 323 171 463 171 c 0
 499 171 533 178 563 190 c 1
 563 2 l 1
 531 -6 497 -10 463 -10 c 0
 229 -10 39 180 39 414 c 0
EndSplineSet
EndChar

StartChar: G
Encoding: 71 71 106
Width: 643
Flags: HMW
LayerCount: 2
Back
SplineSet
382 359 m 1
 563 359 l 1
 563 82 l 1
 382 82 l 1
 382 359 l 1
39 414 m 0
 39 648 229 838 463 838 c 0
 497 838 531 834 563 826 c 1
 563 638 l 1
 533 650 499 657 463 657 c 0
 323 657 220 556 220 414 c 0
 220 272 323 171 463 171 c 0
 499 171 533 178 563 190 c 1
 563 2 l 1
 531 -6 497 -10 463 -10 c 0
 229 -10 39 180 39 414 c 0
EndSplineSet
Fore
SplineSet
402 444 m 1
 583 444 l 1
 583 82 l 1
 402 82 l 1
 402 444 l 1
39 414 m 0
 39 648 229 838 463 838 c 0
 497 838 531 834 563 826 c 1
 563 638 l 1
 533 650 499 657 463 657 c 0
 323 657 220 556 220 414 c 0
 220 277 323 171 463 171 c 2
 583 171 l 1
 583 0 l 1
 463 0 l 2
 229 0 39 185 39 414 c 0
EndSplineSet
EndChar

StartChar: D
Encoding: 68 68 107
Width: 713
Flags: HMW
LayerCount: 2
Back
SplineSet
250 181 m 2
 390 181 493 277 493 414 c 0
 493 551 390 647 250 647 c 2
 241 647 l 1
 241 181 l 1
 250 181 l 2
60 0 m 1
 60 828 l 1
 250 828 l 2
 484 828 674 643 674 414 c 0
 674 185 484 0 250 0 c 2
 60 0 l 1
EndSplineSet
Fore
SplineSet
60 0 m 1
 60 828 l 1
 250 828 l 2
 484 828 674 643 674 414 c 0
 674 196.199734696 502.13025004 18.2008851715 284 1.31101466871 c 1
 284 182.945874533 l 1
 406.361252494 197.189846531 493 288.351289053 493 414 c 0
 493 551 390 647 250 647 c 2
 241 647 l 1
 241 3.94129173742e-15 l 1
 60 0 l 1
EndSplineSet
EndChar

StartChar: X
Encoding: 88 88 108
Width: 847
Flags: HMW
LayerCount: 2
Back
SplineSet
383 414 m 4
 383 648 523 838 757 838 c 4
 791 838 825 834 857 826 c 5
 857 638 l 5
 827 650 793 657 757 657 c 4
 617 657 514 556 514 414 c 4
 514 272 617 171 757 171 c 4
 793 171 827 178 857 190 c 5
 857 2 l 5
 825 -6 791 -10 757 -10 c 4
 523 -10 383 180 383 414 c 4
EndSplineSet
Fore
SplineSet
100 657 m 3
 235 657 333 556 333 414 c 0
 333 272 235 171 100 171 c 3
 84.875 171 76 172 60 174 c 1
 60 -8 l 1
 81 -10 86.9619140625 -10 100 -10 c 3
 329 -10 464 180 464 414 c 0
 464 648 329 838 100 838 c 3
 86.9619140625 838 81 838 60 836 c 1
 60 654 l 1
 76 656 84.875 657 100 657 c 3
747 171 m 3
 612 171 514 272 514 414 c 0
 514 556 612 657 747 657 c 3
 762.125 657 771 656 787 654 c 1
 787 836 l 1
 766 838 760.038085938 838 747 838 c 3
 518 838 383 648 383 414 c 0
 383 180 518 -10 747 -10 c 3
 760.038085938 -10 766 -10 787 -8 c 1
 787 174 l 1
 771 172 762.125 171 747 171 c 3
EndSplineSet
EndChar

StartChar: M
Encoding: 77 77 109
Width: 965
Flags: HMW
LayerCount: 2
Fore
SplineSet
445 581 m 2
 445 750 544 838 678 838 c 0
 786 838 905 746 905 587 c 2
 905 0 l 9
 724 0 l 17
 724 581 l 2
 724 634 682 657 648 657 c 3
 613 657 573 634 573 581 c 2
 573 0 l 9
 445 0 l 17
 445 581 l 2
60 587 m 2
 60 746 178 838 287 838 c 0
 425 838 520 750 520 581 c 2
 520 0 l 9
 392 0 l 17
 392 581 l 2
 392 634 351 657 317 657 c 3
 282 657 241 634 241 581 c 2
 241 0 l 9
 60 0 l 17
 60 587 l 2
EndSplineSet
EndChar

StartChar: N
Encoding: 78 78 110
Width: 672
Flags: HMW
LayerCount: 2
Back
SplineSet
241 562 m 4
 241 614 284 657 336 657 c 4
 388 657 431 614 431 562 c 4
 431 510 388 467 336 467 c 0
 284 467 241 510 241 562 c 4
79 587 m 2
 79 746 197 838 306 838 c 0
 444 838 539 756 539 587 c 2
 539 0 l 9
 411 0 l 17
 411 587 l 2
 411 640 370 663 336 663 c 3
 301 663 260 640 260 587 c 2
 260 0 l 9
 79 0 l 17
 79 587 l 2
  Spiro
    79 587 ]
    113.565 722.629 o
    198.805 808.318 o
    306 838 o
    427.637 810.537 o
    509.317 727.074 o
    539 587 [
    539 0 v
    411 0 v
    411 587 ]
    399.133 630.225 o
    370.522 655.09 o
    336 663 o
    300.775 655.09 o
    271.904 630.225 o
    260 587 [
    260 0 v
    79 0 v
    0 0 z
  EndSpiro
EndSplineSet
Fore
SplineSet
612 561 m 6
 612 0 l 5
 431 0 l 5
 431 562 l 6
 431 614 388 657 336 657 c 4
 284 657 241 614 241 562 c 6
 241 0 l 5
 60 0 l 5
 60 561 l 6
 60 713 184 837 336 837 c 4
 488 837 612 713 612 561 c 6
EndSplineSet
EndChar

StartChar: I
Encoding: 73 73 112
Width: 301
Flags: HMW
LayerCount: 2
Fore
SplineSet
60 828 m 1
 241 828 l 1
 241 0 l 1
 60 0 l 1
 60 828 l 1
EndSplineSet
EndChar

StartChar: V
Encoding: 86 86 113
Width: 672
Flags: HMW
LayerCount: 2
Fore
SplineSet
60 827 m 1
 241 827 l 1
 241.014648438 181 l 1
 336 180 l 2
 388 180 431 223 431 275 c 2
 431 827 l 1
 612 827 l 1
 612 276 l 2
 612 124 488 0 336 0 c 2
 70.2744140625 0 l 0
 60 827 l 1
EndSplineSet
EndChar

StartChar: W
Encoding: 87 87 114
Width: 965
Flags: HMW
LayerCount: 2
Fore
SplineSet
520 257 m 2
 520 88 421 0 287 0 c 2
 60 0 l 25
 60 828 l 9
 241 828 l 17
 241 181 l 25
 317 181 l 2
 352 181 392 204 392 257 c 2
 392 828 l 9
 520 828 l 17
 520 257 l 2
905 241 m 2
 905 82 787 -10 678 -10 c 0
 540 -10 445 78 445 247 c 2
 445 828 l 9
 573 828 l 17
 573 247 l 2
 573 194 614 171 648 171 c 3
 683 171 724 194 724 247 c 2
 724 828 l 9
 905 828 l 17
 905 241 l 2
EndSplineSet
EndChar

StartChar: A
Encoding: 65 65 115
Width: 672
Flags: HMW
LayerCount: 2
Fore
SplineSet
284 436 m 1
 447 436 l 1
 447 255 l 1
 284 255 l 1
 284 436 l 1
612 0 m 1
 431 0 l 1
 430.985351562 646 l 1
 336 647 l 2
 284 647 241 604 241 552 c 2
 241 0 l 1
 60 0 l 1
 60 551 l 2
 60 703 184 827 336 827 c 2
 601.725585938 827 l 0
 612 0 l 1
EndSplineSet
EndChar

StartChar: Y
Encoding: 89 89 116
Width: 672
Flags: HMW
LayerCount: 2
Fore
SplineSet
248 426 m 1
 423 426 l 1
 423 0 l 1
 248 0 l 1
 248 426 l 1
60 594 m 2
 60 827 l 1
 241 827 l 1
 241 593 l 2
 241 541 284 498 336 498 c 0
 388 498 431 541 431 593 c 2
 431 827 l 1
 612 827 l 1
 612 594 l 2
 612 442 488 318 336 318 c 0
 184 318 60 442 60 594 c 2
EndSplineSet
EndChar

StartChar: K
Encoding: 75 75 117
Width: 734
Flags: HMW
LayerCount: 2
Fore
SplineSet
250 333 m 2
 188 333 l 25
 188 453 l 25
 250 453 l 2
 484 453 674 328 674 99 c 2
 674 0 l 1
 492 0 l 1
 492 99 l 2
 492 234 392 333 250 333 c 2
60 828 m 1
 235 828 l 1
 235 0 l 1
 60 0 l 1
 60 828 l 1
247 513 m 2
 389 513 489 612 489 747 c 2
 489 828 l 1
 671 828 l 1
 671 747 l 2
 671 518 481 393 247 393 c 2
 188 393 l 25
 188 513 l 25
 247 513 l 2
EndSplineSet
EndChar

StartChar: P
Encoding: 80 80 118
Width: 661
Flags: HMW
LayerCount: 2
Back
SplineSet
400 580 m 0
 400 624 364 660 320 660 c 0
 276 660 240 624 240 580 c 0
 240 536 276 500 320 500 c 0
 364 500 400 536 400 580 c 0
575 585 m 0
 575 444 446 370 320 370 c 0
 194 370 65 444 65 585 c 0
 65 719 179 838 320 838 c 0
 461 838 575 719 575 585 c 0
240 245 m 0
 240 201 276 165 320 165 c 0
 364 165 400 201 400 245 c 0
 400 289 364 325 320 325 c 0
 276 325 240 289 240 245 c 0
65 240 m 0
 65 381 194 455 320 455 c 0
 446 455 575 381 575 240 c 0
 575 106 461 -10 320 -10 c 0
 179 -10 65 106 65 240 c 0
EndSplineSet
Fore
SplineSet
341 654 m 0
 286 654 241 609 241 554 c 2
 241 0 l 1
 60 0 l 17
 60 554 l 2
 60 709 186 835 341 835 c 0
 496 835 622 709 622 554 c 0
 622 399 496 273 341 273 c 0
 321 273 302 275 284 279 c 1
 284 472 l 1
 300 461 320 454 341 454 c 0
 396 454 441 499 441 554 c 0
 441 609 396 654 341 654 c 0
EndSplineSet
EndChar

StartChar: R
Encoding: 82 82 119
Width: 672
Flags: HMW
LayerCount: 2
Back
SplineSet
159 390 m 5
 295 390 l 6
 425 390 530 290 530 160 c 6
 530 0 l 29
 503 0 l 29
 503 160 l 6
 503 275 410 368 295 368 c 6
 159 368 l 5
 159 390 l 5
159 374 m 5
 159 395 l 5
 305 395 l 6
 420 395 513 487.982421875 513 603 c 7
 513 718.040039062 420.004882812 811 305 811 c 7
 189.995117188 811 97 718 97 603 c 6
 97 0 l 5
 70 0 l 5
 70 604 l 6
 70 734 175 838 305 838 c 7
 435.00390625 838 540 733 540 603 c 7
 540 473 435 374 305 374 c 6
 159 374 l 5
295 663 m 3
 257 663 220 637 220 574 c 2
 220 0 l 9
 45 0 l 17
 45 576 l 2
 45 738 164 838 295 838 c 0
 439 838 555 721 555 577 c 0
 555 433 439 318 295 318 c 0
 282.517578125 318 270.505859375 318.965820312 263 319.833007812 c 1
 263 498.997070312 l 1
 274.87890625 494.654296875 282.98046875 493 295 493 c 0
 344 493 380 533 380 578 c 0
 380 622 345 663 295 663 c 3
EndSplineSet
Fore
SplineSet
284 394 m 25
 331 394 l 2
 486 394 612 328 612 173 c 2
 612 0 l 1
 431 0 l 1
 431 173 l 2
 431 228 386 273 331 273 c 2
 284 273 l 25
 284 394 l 25
284 333 m 1
 284 454 l 1
 341 454 l 2
 396 454 441 499 441 554 c 0
 441 609 396 654 341 654 c 0
 286 654 241 609 241 554 c 2
 241 0 l 1
 60 0 l 17
 60 554 l 2
 60 709 186 835 341 835 c 0
 496 835 622 709 622 554 c 0
 622 399 496 333 341 333 c 2
 284 333 l 1
EndSplineSet
EndChar

StartChar: J
Encoding: 74 74 120
Width: 385
Flags: HMW
LayerCount: 2
Fore
SplineSet
145 828 m 1
 326 828 l 1
 326 250 l 2
 326 102 210.00390625 -10 66 -10 c 3
 42 -10 21 -7 5 -3 c 1
 5 178 l 1
 21 173 37 171 51 171 c 3
 96.552734375 171 145 200 145 270 c 2
 145 828 l 1
EndSplineSet
EndChar

StartChar: S
Encoding: 83 83 121
Width: 697
Flags: HMW
LayerCount: 2
Back
SplineSet
258 414 m 0
 258 648 408 838 612 838 c 0
 646 838 680 834 712 826 c 1
 712 638 l 1
 682 650 648 657 612 657 c 0
 502 657 439 556 439 414 c 0
 439 180 289 -10 85 -10 c 0
 51 -10 17 -6 -15 2 c 1
 -15 190 l 1
 15 178 49 171 85 171 c 0
 195 171 258 272 258 414 c 0
EndSplineSet
Fore
SplineSet
258 414 m 0
 258 648 408 838 612 838 c 0
 625.374023438 838 638.748046875 837.380859375 652 836.143554688 c 1
 652 654.086914062 l 1
 639.02734375 655.9921875 625.657226562 657 612 657 c 0
 502 657 439 556 439 414 c 0
 439 180 289 -10 85 -10 c 0
 71.6259765625 -10 58.251953125 -9.380859375 45 -8.1435546875 c 1
 45 173.913085938 l 1
 57.97265625 172.0078125 71.3427734375 171 85 171 c 0
 195 171 258 272 258 414 c 0
EndSplineSet
EndChar

StartChar: B
Encoding: 66 66 122
Width: 613
Flags: HMW
LayerCount: 2
Fore
SplineSet
317 454 m 0
 439 454 574 359 574 227 c 0
 574 95 459 0 317 0 c 0
 283 0 l 1
 283 181 l 1
 317 181 l 0
 360 181 394 204 394 247 c 0
 394 290 360 324 317 324 c 0
 283 324 l 25
 283 454 l 25
 317 454 l 0
283 504 m 1
 317 504 l 2
 360 504 394 538 394 581 c 0
 394 624 360 658 317 658 c 0
 274 658 240 624 240 581 c 6
 240 0 l 5
 60 0 l 1
 60 581 l 2
 60 723 175 838 317 838 c 0
 459 838 574 733 574 601 c 0
 574 469 439 374 317 374 c 2
 283 374 l 1
 283 504 l 1
EndSplineSet
EndChar

StartChar: E
Encoding: 69 69 123
Width: 623
Flags: HMW
LayerCount: 2
Back
SplineSet
60 828 m 25
 533 828 l 1
 533 647 l 25
 241 647 l 25
 241 503 l 25
 531 503 l 25
 531 332 l 25
 241 332 l 25
 241 181 l 25
 534 181 l 25
 534 0 l 25
 60 0 l 1
 60 828 l 25
EndSplineSet
Fore
SplineSet
191 503 m 1
 535 503 l 1
 535 332 l 1
 191 332 l 1
 191 503 l 1
39 414 m 0
 39 648 229 838 463 838 c 0
 497 838 531 834 563 826 c 1
 563 638 l 1
 533 650 499 657 463 657 c 0
 323 657 220 556 220 414 c 0
 220 272 323 171 463 171 c 0
 499 171 533 178 563 190 c 1
 563 2 l 1
 531 -6 497 -10 463 -10 c 0
 229 -10 39 180 39 414 c 0
EndSplineSet
EndChar

StartChar: F
Encoding: 70 70 124
Width: 593
Flags: HMW
LayerCount: 2
Back
SplineSet
60 0 m 5
 60 828 l 29
 533 828 l 5
 533 647 l 29
 241 647 l 29
 241 503 l 29
 531 503 l 29
 531 332 l 29
 241 332 l 29
 241 0 l 29
 60 0 l 5
EndSplineSet
Fore
SplineSet
60 568 m 2
 60 716 175.99609375 828 320 828 c 3
 533 828 l 1
 533 647 l 25
 335 647 l 3
 289.447265625 647 241 618 241 548 c 2
 241 503 l 25
 531 503 l 25
 531 332 l 25
 241 332 l 25
 241 0 l 25
 60 0 l 1
 60 568 l 2
EndSplineSet
EndChar

StartChar: H
Encoding: 72 72 125
Width: 720
Flags: HMW
LayerCount: 2
Fore
SplineSet
60 828 m 1
 235 828 l 1
 235 503 l 1
 485 503 l 1
 485 828 l 1
 660 828 l 1
 660 0 l 1
 485 0 l 1
 485 332 l 1
 235 332 l 1
 235 0 l 1
 60 0 l 1
 60 828 l 1
EndSplineSet
EndChar

StartChar: L
Encoding: 76 76 126
Width: 593
Flags: HMW
LayerCount: 2
Back
SplineSet
241 828 m 25
 241 181 l 25
 534 181 l 29
 534 0 l 25
 60 0 l 1
 60 828 l 25
 241 828 l 25
EndSplineSet
Fore
SplineSet
241 828 m 25
 241 280 l 2
 241 210 289.447265625 181 335 181 c 3
 534 181 l 25
 534 0 l 1
 320 0 l 0
 175.99609375 0 60 112 60 260 c 2
 60 828 l 1
 241 828 l 25
EndSplineSet
EndChar

StartChar: T
Encoding: 84 84 127
Width: 653
Flags: HMW
LayerCount: 2
Fore
SplineSet
236 647 m 1
 45 647 l 1
 45 828 l 1
 608 828 l 1
 608 647 l 1
 417 647 l 1
 417 0 l 1
 236 0 l 1
 236 647 l 1
EndSplineSet
EndChar

StartChar: Z
Encoding: 90 90 128
Width: 738
Flags: HMW
LayerCount: 2
Back
SplineSet
121 71 m 0
 -60 71 l 0
 -60 305 130 495 364 495 c 7
 504 495 607 596 607 738 c 0
 788 738 l 0
 788 504 598 314 364 314 c 3
 224 314 121 213 121 71 c 0
EndSplineSet
Fore
SplineSet
60 71 m 1
 178 180 l 1
 678 181 l 1
 678 0 l 1
 60 0 l 1
 60 71 l 1
70 828 m 1
 668 828 l 1
 668 738 l 1
 557 647 l 1
 70 647 l 1
 70 828 l 1
241 71 m 0
 60 71 l 0
 60 305 150.837890625 475.46484375 364 495 c 0
 483.280273438 505.931640625 487 596 487 738 c 0
 668 738 l 0
 668 504 578.192382812 333.458984375 364 314 c 0
 243.73046875 303.073242188 241 213 241 71 c 0
EndSplineSet
EndChar

StartChar: sterling
Encoding: 163 163 129
Width: 602
Flags: HMW
LayerCount: 2
Fore
SplineSet
235 499 m 1
 513 499 l 1
 513 329 l 1
 235 329 l 1
 235 499 l 1
327 291 m 2
 327 137.075195312 199.689453125 75 45 75 c 1
 45 170 l 1
 112.553710938 170 152 243 152 295 c 2
 152 572 l 2
 152 716 267.99609375 828 412 828 c 3
 458 828 496 818 538 797 c 1
 538 618 l 1
 496 645 469.010742188 653 434 653 c 3
 366.446289062 653 327 620 327 568 c 2
 327 291 l 2
45 170 m 1
 548 170 l 1
 548 0 l 1
 45 0 l 1
 45 170 l 1
EndSplineSet
EndChar

StartChar: Euro
Encoding: 8364 8364 130
Width: 623
Flags: HMW
LayerCount: 2
Fore
SplineSet
191 389 m 1
 535 389 l 1
 535 253 l 1
 191 253 l 1
 191 389 l 1
191 576 m 1
 535 576 l 1
 535 440 l 1
 191 440 l 1
 191 576 l 1
39 414 m 0
 39 648 229 838 463 838 c 0
 497 838 531 834 563 826 c 1
 563 638 l 1
 533 650 499 657 463 657 c 0
 323 657 220 556 220 414 c 0
 220 272 323 171 463 171 c 0
 499 171 533 178 563 190 c 1
 563 2 l 1
 531 -6 497 -10 463 -10 c 0
 229 -10 39 180 39 414 c 0
EndSplineSet
EndChar

StartChar: ampersand
Encoding: 38 38 131
Width: 856
Flags: HMW
LayerCount: 2
Fore
SplineSet
735 -10 m 3
 590.99609375 -10 475 102 475 250 c 2
 475 679 l 1
 650 679 l 1
 650 500 l 1
 791 500 l 1
 791 332 l 1
 650 332 l 1
 650 270 l 2
 650 198 702.447265625 165 750 165 c 3
 764 165 780 167 796 172 c 1
 796 -3 l 1
 780 -7 759 -10 735 -10 c 3
432 807 m 1
 432 632 l 1
 400 650 375.049804688 663 331 663 c 3
 271.990234375 663 226 639 226 584 c 3
 226 540 239 500 353 500 c 2
 545 500 l 1
 545 376 l 1
 303 376 l 2
 177 376 51 448 51 589 c 3
 51 722.950195312 161 838 307 838 c 3
 354 838 393 827 432 807 c 1
433 21 m 1
 394 1 354 -10 307 -10 c 3
 161 -10 45 106.049804688 45 240 c 3
 45 381 177 459 303 459 c 2
 545 458 l 1
 545 332 l 1
 353 332 l 2
 239 332 220 289 220 245 c 3
 220 190 271.990234375 165 331 165 c 3
 375.049804688 165 401 178 433 196 c 1
 433 21 l 1
EndSplineSet
EndChar

StartChar: germandbls
Encoding: 223 223 132
Width: 613
Flags: HMW
LayerCount: 2
Fore
SplineSet
317 454 m 0
 439 454 574 359 574 227 c 0
 574 95 459 -10 317 -10 c 0
 305.47265625 -10 294.124023438 -9.2421875 283 -7.7734375 c 1
 283 171.709960938 l 1
 293.215820312 166.762695312 304.7421875 164 317 164 c 0
 360 164 400 202 400 245 c 0
 400 288 360 327 317 327 c 0
 283 327 l 25
 283 454 l 25
 317 454 l 0
283 501 m 1
 317 501 l 2
 360 501 400 540 400 583 c 0
 400 626 360 664 317 664 c 0
 274 664 234 624 234 581 c 2
 234 0 l 1
 60 0 l 1
 60 581 l 2
 60 723 175 838 317 838 c 0
 459 838 574 733 574 601 c 0
 574 469 439 374 317 374 c 2
 283 374 l 1
 283 501 l 1
EndSplineSet
EndChar

StartChar: section
Encoding: 167 167 133
Width: 878
Flags: HMW
LayerCount: 2
Fore
SplineSet
191 -58 m 2
 191 250 l 2
 191 398 306.99609375 510 451 510 c 3
 475 510 496 507 512 503 c 1
 512 328 l 1
 496 333 480 335 466 335 c 3
 418.447265625 335 366 302 366 230 c 2
 366 -78 l 2
 366 -226 250.00390625 -338 106 -338 c 3
 82 -338 61 -335 45 -331 c 1
 45 -156 l 1
 61 -161 77 -163 91 -163 c 3
 138.552734375 -163 191 -130 191 -58 c 2
512 270 m 2
 512 578 l 2
 512 726 627.99609375 838 772 838 c 3
 796 838 817 835 833 831 c 1
 833 656 l 1
 817 661 801 663 787 663 c 3
 739.447265625 663 687 630 687 558 c 2
 687 250 l 2
 687 102 571.00390625 -10 427 -10 c 3
 403 -10 382 -7 366 -3 c 1
 366 172 l 1
 382 167 398 165 412 165 c 3
 459.552734375 165 512 198 512 270 c 2
EndSplineSet
EndChar

StartChar: at
Encoding: 64 64 134
Width: 1204
Flags: HMW
LayerCount: 2
Back
SplineSet
890 250 m 0
 890 291 924 325 965 325 c 0
 1006 325 1040 291 1040 250 c 0
 1040 209 1006 175 965 175 c 0
 924 175 890 209 890 250 c 0
214 250 m 0
 214 22 392 -163 627 -163 c 0
 848 -163 1040 22 1040 250 c 0
 1040 478 855 663 627 663 c 0
 399 663 214 478 214 250 c 0
39 250 m 0
 39 575 302 838 627 838 c 0
 952 838 1215 575 1215 250 c 0
 1215 -75 952 -338 627 -338 c 0
 302 -338 39 -75 39 250 c 0
EndSplineSet
Fore
SplineSet
797 -313 m 1
 745 -330 678 -338 627 -338 c 3
 302 -338 39 -75 39 250 c 0
 39 575 302 838 627 838 c 3
 962 838 1155 545.232421875 1155 310 c 3
 1155 123 1039 -2.41247451703e-14 842 0 c 2
 697 0 l 9
 697 246 l 2
 697 309 660 335 622 335 c 3
 572 335 537 294 537 250 c 0
 537 205 573 165 622 165 c 0
 634 165 642 167 654 171 c 1
 654 -8 l 1
 646 -9 634 -10 622 -10 c 0
 478 -10 362 105 362 249 c 0
 362 393 478 510 622 510 c 0
 753 510 872 410 872 248 c 2
 872 165 l 17
 882 165 l 2
 945 165 980 229 980 310 c 3
 980 448.422851562 875 663 627 663 c 3
 399 663 214 478 214 250 c 0
 214 22 392 -163 627 -163 c 3
 674.010637094 -163 740 -153 797 -125 c 1
 797 -313 l 1
EndSplineSet
EndChar

StartChar: quotesingle
Encoding: 39 39 135
Width: 364
Flags: HMW
LayerCount: 2
Fore
SplineSet
99.5 838 m 1
 264.5 838 l 1
 264.5 546 l 5
 99.5 546 l 5
 99.5 838 l 1
EndSplineSet
EndChar

StartChar: plus
Encoding: 43 43 137
Width: 611
Flags: HMW
LayerCount: 2
Fore
SplineSet
218 647 m 1
 393 647 l 1
 393 474 l 1
 566 474 l 1
 566 299 l 1
 393 299 l 1
 393 124 l 1
 218 124 l 1
 218 299 l 1
 45 299 l 1
 45 474 l 1
 218 474 l 1
 218 647 l 1
EndSplineSet
EndChar

StartChar: minus
Encoding: 8722 8722 138
Width: 611
Flags: HMW
LayerCount: 2
Fore
SplineSet
45 474 m 5
 566 474 l 5
 566 299 l 5
 45 299 l 5
 45 474 l 5
EndSplineSet
EndChar

StartChar: equal
Encoding: 61 61 139
Width: 611
Flags: HMW
LayerCount: 2
Back
SplineSet
218 647 m 1
 393 647 l 1
 393 474 l 1
 566 474 l 1
 566 299 l 1
 393 299 l 1
 393 124 l 1
 218 124 l 1
 218 299 l 1
 45 299 l 1
 45 474 l 1
 218 474 l 1
 218 647 l 1
EndSplineSet
Fore
Refer: 138 8722 S 1 0 0 1 0 -130 2
Refer: 138 8722 N 1 0 0 1 0 130 2
EndChar

StartChar: logicalnot
Encoding: 172 172 140
Width: 626
Flags: HMW
LayerCount: 2
Fore
SplineSet
566 124 m 1
 391 124 l 1
 391 299 l 1
 45 299 l 1
 45 474 l 1
 566 474 l 1
 566 124 l 1
EndSplineSet
EndChar

StartChar: divide
Encoding: 247 247 142
Width: 611
Flags: HMW
LayerCount: 2
Back
SplineSet
218 647 m 1
 393 647 l 1
 393 474 l 1
 566 474 l 1
 566 299 l 1
 393 299 l 1
 393 124 l 1
 218 124 l 1
 218 299 l 1
 45 299 l 1
 45 474 l 1
 218 474 l 1
 218 647 l 1
EndSplineSet
Fore
Refer: 29 46 N 1 0 0 1 125 513 2
Refer: 29 46 N 1 0 0 1 125 73 2
Refer: 138 8722 N 1 0 0 1 0 0 2
EndChar

StartChar: dagger
Encoding: 8224 8224 143
Width: 551
Flags: HMW
LayerCount: 2
Fore
SplineSet
45 628 m 1
 506 628 l 1
 506 453 l 1
 45 453 l 1
 45 628 l 1
185 828 m 1
 366 828 l 1
 366 0 l 1
 185 0 l 1
 185 828 l 1
EndSplineSet
EndChar

StartChar: daggerdbl
Encoding: 8225 8225 144
Width: 551
Flags: HMW
LayerCount: 2
Fore
SplineSet
45 375 m 1
 506 375 l 1
 506 200 l 1
 45 200 l 1
 45 375 l 1
45 628 m 1
 506 628 l 1
 506 453 l 1
 45 453 l 1
 45 628 l 1
185 828 m 1
 366 828 l 1
 366 0 l 1
 185 0 l 1
 185 828 l 1
EndSplineSet
EndChar

StartChar: endash
Encoding: 8211 8211 145
Width: 500
Flags: HMW
LayerCount: 2
Fore
SplineSet
0 340 m 1
 500 340 l 1
 500 172 l 1
 0 172 l 1
 0 340 l 1
EndSplineSet
EndChar

StartChar: bar
Encoding: 124 124 147
Width: 500
Flags: HMW
LayerCount: 2
Fore
SplineSet
162 828 m 1
 337 828 l 1
 337 -170 l 1
 162 -170 l 1
 162 828 l 1
EndSplineSet
EndChar

StartChar: brokenbar
Encoding: 166 166 148
Width: 500
Flags: HMW
LayerCount: 2
Fore
SplineSet
162 828 m 1
 337 828 l 1
 337 421 l 1
 162 421 l 1
 162 828 l 1
337 257 m 1
 337 -170 l 1
 162 -170 l 1
 162 257 l 1
 337 257 l 1
EndSplineSet
EndChar

StartChar: numbersign
Encoding: 35 35 149
Width: 761
Flags: HMW
LayerCount: 2
Fore
SplineSet
453 828 m 1
 621 828 l 1
 621 0 l 1
 453 0 l 1
 453 828 l 1
60 662 m 1
 701 662 l 1
 701 494 l 1
 60 494 l 1
 60 662 l 1
60 337 m 1
 701 337 l 1
 701 169 l 1
 60 169 l 1
 60 337 l 1
140 828 m 1
 308 828 l 1
 308 0 l 1
 140 0 l 1
 140 828 l 1
EndSplineSet
EndChar

StartChar: parenleft
Encoding: 40 40 150
Width: 391
Flags: HMW
LayerCount: 2
Fore
SplineSet
60 80 m 2
 60 578 l 2
 60 726 175.99609375 838 320 838 c 2
 346 838 l 1
 346 663 l 25
 335 663 l 2
 289.447265625 663 235 628 235 558 c 2
 235 100 l 2
 235 30 289.447265625 -5 335 -5 c 6
 346 -5 l 29
 346 -180 l 5
 320 -180 l 6
 175.99609375 -180 60 -68 60 80 c 2
EndSplineSet
EndChar

StartChar: braceleft
Encoding: 123 123 151
Width: 486
Flags: HMW
LayerCount: 2
Fore
SplineSet
415 -170 m 2
 271 -170 155 -58 155 90 c 2
 155 136 l 2
 155 208.040039062 102.552734375 241 55 241 c 2
 45 241 l 1
 45 380 l 1
 70 380 l 2
 214.00390625 380 330 294 330 146 c 2
 330 110 l 2
 330 40 384 5 430 5 c 2
 441 5 l 25
 441 -170 l 1
 415 -170 l 2
430 653 m 2
 384 653 330 618 330 548 c 2
 330 511 l 2
 330 363 214.00390625 277 70 277 c 2
 45 277 l 1
 45 416 l 1
 55 416 l 2
 102.552734375 416 155 448.959960938 155 521 c 2
 155 568 l 2
 155 716 271 828 415 828 c 2
 441 828 l 1
 441 653 l 25
 430 653 l 2
EndSplineSet
EndChar

StartChar: bracketleft
Encoding: 91 91 153
Width: 390
Flags: HMW
LayerCount: 2
Fore
SplineSet
235 653 m 1
 235 5 l 1
 345 5 l 1
 345 -170 l 1
 60 -170 l 1
 60 828 l 1
 345 828 l 1
 345 653 l 1
 235 653 l 1
EndSplineSet
EndChar

StartChar: dollar
Encoding: 36 36 157
Width: 542
Flags: HMW
LayerCount: 2
Back
SplineSet
359 40 m 3
 345 40 331 41 318 45 c 1
 318 220 l 1
 333 216 350 215 364 215 c 3
 476.552734375 215 544 297.959960938 544 425 c 2
 544 468 l 1
 619 468 l 1
 619 405 l 2
 619 187 573.00390625 40 359 40 c 3
543 828 m 1
 678 828 l 1
 678 0 l 1
 543 0 l 1
 543 828 l 1
863 788 m 3
 877 788 891 787 904 783 c 1
 904 608 l 1
 889 612 872 613 858 613 c 3
 745.447265625 613 678 530.040039062 678 403 c 2
 678 360 l 1
 603 360 l 1
 603 423 l 2
 603 641 648.99609375 788 863 788 c 3
-75 320 m 2
 -75 191 -111 80 -225 80 c 0
 -228 80 -232 80 -235 80 c 2
 -235 265 l 1
 -225 258 -213 255 -200 255 c 0
 -167 255 -140 277 -140 320 c 2
 -140 380 l 1
 -75 380 l 1
 -75 320 l 2
-30 508 m 2
 -30 637 6 748 120 748 c 0
 123 748 127 748 130 748 c 2
 130 563 l 1
 120 570 108 573 95 573 c 0
 62 573 35 551 35 508 c 2
 35 448 l 1
 -30 448 l 1
 -30 508 l 2
-140 828 m 1
 35 828 l 1
 35 0 l 1
 -140 0 l 1
 -140 828 l 1
EndSplineSet
Fore
SplineSet
348 125 m 1
 348 -10 l 1
 173 -10 l 1
 173 125 l 1
 348 125 l 1
173 838 m 1
 348 838 l 1
 348 703 l 1
 173 703 l 1
 173 838 l 1
239 332 m 2
 132 332 45 421 45 528 c 3
 45 635 131 724 238 724 c 2
 487 724 l 1
 487 559 l 1
 253 559 l 2
 234 559 220 546 220 528 c 3
 220 510 235 497 254 497 c 2
 303 497 l 2
 410 497 497 408 497 301 c 3
 497 194 411 105 304 105 c 2
 45 105 l 1
 45 270 l 1
 289 270 l 2
 308 270 322 283 322 301 c 3
 322 319 307 332 288 332 c 2
 239 332 l 2
EndSplineSet
EndChar

StartChar: asciitilde
Encoding: 126 126 158
Width: 805
Flags: HMW
LayerCount: 2
Back
SplineSet
220 315 m 0
 220 387 278 445 350 445 c 0
 422 445 480 387 480 315 c 0
 480 243 422 185 350 185 c 0
 278 185 220 243 220 315 c 0
210 474 m 1
 731 474 l 1
 731 299 l 1
 210 299 l 1
 210 474 l 1
EndSplineSet
Fore
SplineSet
60 182 m 25
 60 392 l 18
 60 511 155.99609375 607 275 607 c 3
 394.00390625 607 477.094726562 507.107421875 490 392 c 0
 492.864257812 366.450195312 507.954101562 352 530 352 c 3
 552.283203125 352 570 370 570 392 c 10
 570 602 l 25
 745 602 l 25
 745 392 l 18
 745 273 649.014648438 177 530 177 c 3
 410.943359375 177 322.608398438 275.729492188 315 392 c 0
 313.333007812 417.48046875 298.440429688 432 275 432 c 3
 253 432 235 414 235 392 c 10
 235 182 l 25
 60 182 l 25
EndSplineSet
EndChar

StartChar: asciicircum
Encoding: 94 94 159
Width: 637
Flags: HMW
LayerCount: 2
Back
SplineSet
321 828 m 21
 321 683 204 568 101 568 c 7
 86 568 76 569 65 572 c 5
 65 597 l 21
 78 594 85 593 101 593 c 7
 189 593 301 699 301 828 c 13
 321 828 l 21
326 828 m 21
 326 699 428 593 526 593 c 7
 542 593 549 593 562 596 c 13
 562 571 l 5
 551 568 541 568 526 568 c 7
 413 568 306 683 306 828 c 13
 326 828 l 21
EndSplineSet
Fore
SplineSet
361 828 m 17
 361 626.99609375 277.331054688 493 106 493 c 3
 82 493 61 496 45 500 c 1
 45 675 l 1
 61 670 75.970703125 668 93 668 c 3
 184.708984375 668 231 730 231 828 c 9
 361 828 l 17
406 828 m 17
 406 730 452 668 544 668 c 3
 561 668 576 670 592 675 c 1
 592 500 l 1
 576 496 555 493 531 493 c 3
 360 493 276 627 276 828 c 9
 406 828 l 17
EndSplineSet
EndChar

StartChar: less
Encoding: 60 60 160
Width: 454
Flags: HMW
LayerCount: 2
Back
SplineSet
79 379 m 2
 55 379 l 9
 55 399 l 17
 79 399 l 2
 185 399 299 480 299 617 c 2
 299 632 l 9
 324 632 l 17
 324 616 l 2
 324 470 203 379 79 379 c 2
79 394 m 2
 203 394 324 303 324 157 c 2
 324 131 l 9
 299 131 l 17
 299 156 l 2
 299 293 185 374 79 374 c 2
 55 374 l 9
 55 394 l 17
 79 394 l 2
EndSplineSet
Fore
SplineSet
99 343 m 2
 45 343 l 25
 45 474 l 25
 99 474 l 2
 177 474 219 528 219 593 c 2
 219 636 l 9
 394 636 l 17
 394 593 l 2
 394 424 251 343 99 343 c 2
99 430 m 2
 251 430 394 349 394 180 c 2
 394 128 l 9
 219 128 l 17
 219 180 l 2
 219 245 177 299 99 299 c 2
 45 299 l 25
 45 430 l 25
 99 430 l 2
EndSplineSet
EndChar

StartChar: multiply
Encoding: 215 215 162
Width: 620
Flags: HMW
LayerCount: 2
Back
SplineSet
231 647 m 1
 406 647 l 1
 406 474 l 1
 579 474 l 1
 579 299 l 1
 406 299 l 1
 406 124 l 1
 231 124 l 1
 231 299 l 1
 58 299 l 1
 58 474 l 1
 231 474 l 1
 231 647 l 1
EndSplineSet
Fore
SplineSet
310 343 m 24
 444 343 560 419 560 563 c 2
 560 636 l 9
 385 636 l 17
 385 553 l 2
 385 508 348 478 310 478 c 3
 272 478 235 508 235 553 c 2
 235 636 l 9
 60 636 l 17
 60 563 l 2
 60 419 176 343 310 343 c 24
310 303 m 0
 349 303 385 273 385 228 c 2
 385 136 l 9
 560 136 l 17
 560 218 l 2
 560 362 442 438 310 438 c 3
 178 438 60 362 60 218 c 2
 60 136 l 9
 235 136 l 17
 235 228 l 2
 235 273 271 303 310 303 c 0
EndSplineSet
EndChar

StartChar: degree
Encoding: 176 176 163
Width: 554
Flags: HMW
LayerCount: 2
Fore
SplineSet
226 638 m 0
 226 608 249 587 277 587 c 0
 305 587 328 608 328 638 c 0
 328 668 305 689 277 689 c 0
 249 689 226 668 226 638 c 0
77 638 m 0
 77 748 167 838 277 838 c 0
 387 838 477 748 477 638 c 0
 477 528 387 438 277 438 c 0
 167 438 77 528 77 638 c 0
EndSplineSet
EndChar

StartChar: minute
Encoding: 8242 8242 164
Width: 364
Flags: HMW
LayerCount: 2
Fore
SplineSet
264.5 651 m 6
 264.5 560 190.5 486 99.5 486 c 13
 99.5 828 l 1
 264.5 828 l 1
 264.5 651 l 6
EndSplineSet
EndChar

StartChar: bullet
Encoding: 8226 8226 166
Width: 530
Flags: HMW
LayerCount: 2
Fore
SplineSet
90 256 m 0
 90 353 168 431 265 431 c 0
 362 431 440 353 440 256 c 0
 440 159 362 81 265 81 c 0
 168 81 90 159 90 256 c 0
EndSplineSet
EndChar

StartChar: asterisk
Encoding: 42 42 167
Width: 612
Flags: HMW
LayerCount: 2
Fore
SplineSet
250 649 m 10
 271 649 l 25
 271 561 l 25
 250 561 l 18
 207 561 188 528 188 489 c 10
 188 478 l 25
 60 478 l 25
 60 489 l 18
 60 576 131 649 250 649 c 10
250 621 m 18
 131 621 60 694 60 781 c 10
 60 792 l 25
 188 792 l 25
 188 781 l 18
 188 742 207 709 250 709 c 10
 271 709 l 25
 271 621 l 25
 250 621 l 18
362 649 m 18
 481 649 552 576 552 489 c 10
 552 478 l 25
 424 478 l 25
 424 489 l 18
 424 528 405 561 362 561 c 10
 341 561 l 25
 341 649 l 25
 362 649 l 18
362 621 m 10
 341 621 l 25
 341 709 l 25
 362 709 l 18
 405 709 424 742 424 781 c 10
 424 792 l 25
 552 792 l 25
 552 781 l 18
 552 694 481 621 362 621 c 10
234 838 m 1
 382 838 l 1
 382 426 l 1
 234 426 l 1
 234 838 l 1
EndSplineSet
EndChar

StartChar: grave
Encoding: 96 96 168
Width: 361
Flags: HMW
LayerCount: 2
Back
SplineSet
211 175 m 6
 471 175 l 5
 471 0 l 5
 211 0 l 6
 61 0 -49 109 -49 250 c 7
 -49 391 60 510 211 510 c 4
 364 510 471 388 471 250 c 4
 471 239 470 229 469 218 c 5
 290 218 l 5
 294 228 296 239 296 250 c 4
 296 293 262 335 211 335 c 4
 160 335 126 293 126 255 c 4
 126 217 160 175 211 175 c 6
  Spiro
    211 175 [
    471 175 v
    471 0 v
    211 0 ]
    77.042 33.4174 o
    -14.9915 122.63 o
    -49 250 o
    -15.2133 379.959 o
    76.597 473.994 o
    211 510 o
    346.292 473.329 o
    437.657 378.625 o
    471 250 o
    470.704 239.27 o
    469.962 228.73 o
    469 218 v
    290 218 v
    293.331 228.286 o
    295.335 239.048 o
    296 250 o
    285.317 291.11 o
    255.666 322.542 o
    211 335 o
    166.334 322.727 o
    136.683 292.594 o
    126 255 o
    136.683 217.406 o
    166.334 187.273 o
    0 0 z
  EndSpiro
39 823 m 0
 39 973 161 1095 311 1095 c 0
 461 1095 583 973 583 823 c 0
 583 673 461 551 311 551 c 0
 161 551 39 673 39 823 c 0
214 823 m 0
 214 877 257 920 311 920 c 0
 365 920 408 877 408 823 c 0
 408 769 365 726 311 726 c 0
 257 726 214 769 214 823 c 0
EndSplineSet
Fore
SplineSet
311 551 m 2
 161 551 39 673 39 823 c 2
 39 828 l 9
 214 828 l 17
 214 823 l 2
 214 769 257 726 311 726 c 2
 316 726 l 25
 316 551 l 25
 311 551 l 2
EndSplineSet
EndChar

StartChar: slash
Encoding: 47 47 169
Width: 519
Flags: HMW
LayerCount: 2
Fore
SplineSet
332 848 m 1
 499 794 l 1
 187 -190 l 1
 20 -136 l 1
 332 848 l 1
EndSplineSet
EndChar

StartChar: percent
Encoding: 37 37 171
Width: 1079
Flags: HW
LayerCount: 2
Fore
SplineSet
773 200 m 4
 773 170 796 149 824 149 c 4
 852 149 875 170 875 200 c 4
 875 230 852 251 824 251 c 4
 796 251 773 230 773 200 c 4
614 200 m 0
 614 316 708 410 824 410 c 0
 940 410 1034 316 1034 200 c 0
 1034 84 940 -10 824 -10 c 0
 708 -10 614 84 614 200 c 0
204 628 m 0
 204 598 227 577 255 577 c 0
 283 577 306 598 306 628 c 0
 306 658 283 679 255 679 c 0
 227 679 204 658 204 628 c 0
45 628 m 0
 45 744 139 838 255 838 c 0
 371 838 465 744 465 628 c 0
 465 512 371 418 255 418 c 0
 139 418 45 512 45 628 c 0
732 838 m 1
 876 739 l 1
 347 -10 l 1
 203 89 l 1
 732 838 l 1
EndSplineSet
EndChar

